<?xml version="1.0" encoding="UTF-8" standalone="no"?>
<!-- Created with Inkscape (http://www.inkscape.org/) -->

<svg
   xmlns:dc="http://purl.org/dc/elements/1.1/"
   xmlns:cc="http://creativecommons.org/ns#"
   xmlns:rdf="http://www.w3.org/1999/02/22-rdf-syntax-ns#"
   xmlns:svg="http://www.w3.org/2000/svg"
   xmlns="http://www.w3.org/2000/svg"
   xmlns:sodipodi="http://sodipodi.sourceforge.net/DTD/sodipodi-0.dtd"
   xmlns:inkscape="http://www.inkscape.org/namespaces/inkscape"
   width="1100"
   height="350"
   viewBox="0 0 291.04166 92.604181"
   version="1.1"
   id="svg1407"
   inkscape:version="0.92.5 (2060ec1f9f, 2020-04-08)"
   sodipodi:docname="meeting3.svg">
  <defs
     id="defs1401">
    <clipPath
       id="freepik--clip-path--inject-90">
      <path
         id="path5037"
         style="fill:#ffffff;stroke:#263238;stroke-width:1.06068194px;stroke-linecap:round;stroke-miterlimit:10"
         d="m 524.15,144.84 c 0,0 -3.25,20.16 -2.15,25.16 2.51,11.19 11.32,10.71 16.83,8.57 5.15,-2 10.29,-9.07 10.95,-10 a 0.38,0.38 0 0 1 0.19,-0.14 c 0.82,-0.23 5.91,-1.85 8.15,-5.78 2.45,-4.29 -2.14,-6.12 -2.14,-6.12"
         inkscape:connector-curvature="0" />
    </clipPath>
    <clipPath
       id="freepik--clip-path-2--inject-90">
      <path
         id="path5040"
         style="fill:#ffffff;stroke:#263238;stroke-width:1.06068194px;stroke-linecap:round;stroke-miterlimit:10"
         d="m 155.64,148.7 c -0.89,-0.33 -1.73,-0.73 -2.6,-1.1 -0.87,-0.37 -2.46,-0.57 -3.06,2.16 -0.89,4 5.3,7.3 3.31,10.61 a 10.87,10.87 0 0 1 -5.3,4.43 4.19,4.19 0 0 1 -1.11,0.22 c -1.77,0.22 -4.64,0 -3.76,3.09 0.88,3.09 3.76,5.75 5.53,5.75 h 1.77 c 0,0 2,6 9.5,9.28 7.5,3.28 12.6,3.1 14.37,-1.1 1.77,-4.2 3.1,-7.74 3.1,-13.27 0,-5.53 -2,-14.81 -2,-14.81 0,0 -1.77,2.44 -8.62,-0.66 -4.53,-2.05 -8.77,-3.71 -11.13,-4.6 z"
         inkscape:connector-curvature="0" />
    </clipPath>
  </defs>
  <sodipodi:namedview
     id="base"
     pagecolor="#ffffff"
     bordercolor="#666666"
     borderopacity="1.0"
     inkscape:pageopacity="0.0"
     inkscape:pageshadow="2"
     inkscape:zoom="1.2354545"
     inkscape:cx="550"
     inkscape:cy="304.50699"
     inkscape:document-units="mm"
     inkscape:current-layer="layer1"
     showgrid="false"
     inkscape:window-width="1920"
     inkscape:window-height="1007"
     inkscape:window-x="0"
     inkscape:window-y="0"
     inkscape:window-maximized="1"
     units="px" />
  <metadata
     id="metadata1404">
    <rdf:RDF>
      <cc:Work
         rdf:about="">
        <dc:format>image/svg+xml</dc:format>
        <dc:type
           rdf:resource="http://purl.org/dc/dcmitype/StillImage" />
        <dc:title></dc:title>
      </cc:Work>
    </rdf:RDF>
  </metadata>
  <g
     inkscape:label="Layer 1"
     inkscape:groupmode="layer"
     id="layer1"
     transform="translate(0,-204.39581)">
    <g
       id="freepik--Lamps--inject-22"
       transform="matrix(0.26458333,0,0,0.26458333,114.23548,91.383331)">
      <polygon
         points="162.9,79.61 177.31,58.23 206.12,58.23 220.53,79.61 "
         style="fill:#263238"
         id="polygon16795" />
      <path
         inkscape:connector-curvature="0"
         d="M 220.53,80.11 H 162.9 a 0.49,0.49 0 0 1 -0.44,-0.26 0.51,0.51 0 0 1 0,-0.52 L 176.89,58 a 0.5,0.5 0 0 1 0.42,-0.22 h 28.81 a 0.51,0.51 0 0 1 0.42,0.22 l 14.4,21.38 a 0.49,0.49 0 0 1 0,0.52 0.51,0.51 0 0 1 -0.41,0.21 z m -56.69,-1 h 55.75 L 205.85,58.73 h -28.28 z"
         style="fill:#263238"
         id="path16797" />
      <path
         inkscape:connector-curvature="0"
         d="m 191.33,58.37 a 0.5,0.5 0 0 1 -0.5,-0.5 V 35.53 a 0.5,0.5 0 0 1 0.5,-0.5 0.5,0.5 0 0 1 0.5,0.5 v 22.34 a 0.5,0.5 0 0 1 -0.5,0.5 z"
         style="fill:#263238"
         id="path16799" />
      <polygon
         points="522.61,79.61 537.01,58.23 565.83,58.23 580.24,79.61 "
         style="fill:#263238"
         id="polygon16801" />
      <path
         inkscape:connector-curvature="0"
         d="m 580.24,80.11 h -57.63 a 0.49,0.49 0 0 1 -0.44,-0.26 0.51,0.51 0 0 1 0,-0.52 L 536.6,58 a 0.5,0.5 0 0 1 0.42,-0.22 h 28.81 a 0.51,0.51 0 0 1 0.42,0.22 l 14.4,21.38 a 0.49,0.49 0 0 1 0,0.52 0.51,0.51 0 0 1 -0.41,0.21 z m -56.69,-1 H 579.3 L 565.56,58.73 h -28.28 z"
         style="fill:#263238"
         id="path16803" />
      <path
         inkscape:connector-curvature="0"
         d="m 551,58.37 a 0.5,0.5 0 0 1 -0.5,-0.5 V 35.53 a 0.5,0.5 0 0 1 0.5,-0.5 0.5,0.5 0 0 1 0.5,0.5 v 22.34 a 0.5,0.5 0 0 1 -0.5,0.5 z"
         style="fill:#263238"
         id="path16805" />
    </g>
    <path
       inkscape:connector-curvature="0"
       id="path22460"
       d="m 23.271329,291.31633 c -0.250298,-4.75852 -0.84179,-9.17111 -2.039286,-15.21331 -0.569577,-2.87391 -1.035593,-5.29283 -1.035593,-5.37539 0,-0.0826 0.327422,-0.11242 0.727604,-0.0664 0.681792,0.0784 0.764707,0.23365 1.316885,2.46497 0.921927,3.72546 2.121328,11.27734 2.437246,15.34583 0.543613,7.0008 0.591582,6.21771 -0.38087,6.21771 h -0.84854 z m 10.687378,1.85209 c 0.008,-3.10747 0.522764,-8.971 0.896509,-10.2122 0.212402,-0.70538 0.707467,-1.74611 1.100146,-2.31275 0.520372,-0.7509 0.638577,-1.12107 0.435943,-1.36523 -0.202009,-0.2434 -0.02527,-0.85888 0.646507,-2.25131 0.508487,-1.05398 1.018479,-1.91633 1.133316,-1.91633 0.351607,0 4.073909,1.58442 4.725834,2.01157 l 0.613077,0.40171 -1.069407,1.94851 -1.069403,1.94851 0.988131,0.48287 c 0.543473,0.26558 0.976226,0.6317 0.961674,0.8136 -0.01455,0.1819 -0.04432,2.95011 -0.06615,6.15157 l -0.03969,5.82083 h -4.630208 -4.630208 l 0.0039,-1.52135 z m 37.227743,-1.05834 c 0.196144,-1.41883 0.322932,-3.175 0.281752,-3.9026 l -0.07488,-1.32292 -13.096875,-0.13229 -13.096875,-0.13229 -0.08223,-0.85082 c -0.07116,-0.7362 0.01532,-0.8753 0.641887,-1.03256 0.398267,-0.1 5.03419,-0.114 10.302055,-0.0312 11.24001,0.17667 12.767191,0.0945 13.090689,-0.70399 0.123983,-0.30604 0.882261,-2.10425 1.685062,-3.99603 l 1.459638,-3.43958 0.433951,-5.29167 c 0.496207,-6.05086 0.454194,-5.44902 0.413824,-5.92798 -0.09182,-1.08933 -3.01656,2.91313 -4.650521,6.36414 -1.29826,2.742 -2.339766,6.13568 -2.870528,9.35343 -0.304268,1.84463 -0.423489,2.12753 -0.927629,2.20121 -0.53603,0.0784 -0.578487,-0.024 -0.578487,-1.39473 0,-1.32115 -0.07071,-1.5115 -0.661459,-1.78066 -0.600305,-0.27352 -0.661379,-0.45034 -0.660614,-1.91256 0.0019,-3.29168 1.272614,-8.60815 2.939672,-12.29747 1.879473,-4.15942 5.454435,-8.4063 9.165965,-10.88873 1.603767,-1.07266 2.171139,-1.31144 3.116205,-1.31144 1.4763,0 3.426317,0.40239 5.993955,1.23685 l 2.034352,0.66115 0.186785,1.49498 c 0.102733,0.82224 0.101008,6.34327 -0.0038,12.26897 l -0.190619,10.77399 1.083336,1.13568 1.083339,1.13567 0.917105,-1.05833 c 1.091141,-1.25916 1.115471,-1.60042 0.407881,-5.72041 -0.600665,-3.49742 -1.268621,-10.23319 -1.511334,-15.24052 -0.1534,-3.16469 -0.125942,-3.51517 0.287829,-3.67395 0.663046,-0.25443 2.291425,0.30295 3.764075,1.28842 1.20444,0.80598 1.33186,1.00616 2.14545,3.37042 1.09659,3.18662 2.38661,5.09047 4.14634,6.11931 1.18156,0.69081 1.54767,0.77436 3.061824,0.69877 1.88774,-0.0942 4.28227,-1.05647 6.34196,-2.54851 0.63018,-0.45649 1.23886,-0.82999 1.35264,-0.82999 0.11378,0 0.46807,0.36682 0.78731,0.81515 0.52056,0.73107 0.54289,0.88546 0.21645,1.49672 -0.20019,0.37486 -1.16765,1.33114 -2.14992,2.12507 -0.98227,0.79392 -1.78594,1.54915 -1.78594,1.67828 0,0.12913 1.41417,0.23478 3.14261,0.23478 3.35637,0 3.54417,0.0674 3.87626,1.39054 0.26059,1.03826 0.77352,0.90009 1.70965,-0.46053 1.11515,-1.6208 1.56405,-1.81108 3.80767,-1.61391 2.1279,0.18699 2.85891,-0.0674 2.38474,-0.82992 -0.16351,-0.26294 -0.7472,-0.53531 -1.32292,-0.61734 -2.20046,-0.31349 -2.75009,-1.01138 -2.75009,-3.49196 0,-4.50606 2.12995,-7.14732 5.28166,-6.54961 2.70884,0.51372 3.01956,1.09598 2.47193,4.63211 -0.20283,1.30969 -0.32462,3.37642 -0.27065,4.59274 l 0.0981,2.21149 -1.01236,-0.13579 c -0.55679,-0.0747 -1.07007,-0.0424 -1.14062,0.0718 -0.0705,0.11415 0.94146,2.41659 2.24891,5.11654 1.30744,2.69995 2.37717,5.09247 2.37717,5.31673 0,0.41605 -1.26652,1.21507 -1.92601,1.21507 -0.20063,0 -0.64539,-0.5991 -0.98834,-1.33132 -0.86447,-1.84568 -1.15492,-2.03054 -1.77076,-1.12704 -0.99059,1.45329 -2.26895,4.60596 -1.98342,4.89149 0.23528,0.23527 13.2501,0.31112 21.4852,0.12521 l 1.98437,-0.0448 v -2.24896 -2.24896 l -1.78593,-0.0782 -1.78594,-0.0782 v -3.57182 c 0,-3.43951 0.024,-3.59586 0.64943,-4.22124 0.58652,-0.58652 1.10806,-0.76916 1.66567,-0.58329 0.10914,0.0364 0.16688,0.16081 0.12832,0.2765 -0.0664,0.19923 2.63066,7.28091 3.09404,8.12402 0.27741,0.50474 0.98062,0.46492 3.49928,-0.19814 2.55616,-0.67294 2.60492,-0.70654 2.60492,-1.79505 0,-0.73306 0.14736,-0.97983 0.78061,-1.3073 0.42934,-0.22202 0.96961,-0.40367 1.2006,-0.40367 0.231,0 1.50961,-0.42081 2.84135,-0.93513 1.33175,-0.51432 2.57477,-0.87626 2.76228,-0.80431 0.25777,0.0989 0.35848,1.3432 0.41293,5.10231 l 0.072,4.9715 1.4552,0.0768 c 0.97083,0.0513 1.56496,0.22176 1.78493,0.51221 0.21708,0.28664 0.85002,0.47301 1.85273,0.54554 1.2948,0.0937 1.59844,0.0268 2.02639,-0.44607 0.27806,-0.30725 0.82765,-0.55623 1.22782,-0.55623 0.41652,0 0.7927,-0.17789 0.88503,-0.41851 0.25817,-0.67276 0.17654,-8.67161 -0.0928,-9.09752 -0.30943,-0.48924 -0.5554,0.12545 -1.62766,4.06757 -0.43174,1.58726 -0.84698,2.98625 -0.92276,3.10886 -0.17784,0.28776 -1.72071,0.2818 -2.17851,-0.008 -0.42449,-0.2691 -0.26078,-2.89263 0.50132,-8.03412 1.47573,-9.95584 4.6295,-16.38472 9.60398,-19.57744 l 1.34676,-0.86438 7.67922,-0.0444 c 8.66093,-0.05 9.86932,-0.13993 11.85173,-0.88164 3.19928,-1.19701 4.59631,-3.89995 5.094,-9.85577 l 0.17135,-2.05052 h 0.98284 c 0.54056,0 1.12572,0.14288 1.30034,0.3175 0.21612,0.21612 0.31625,1.46225 0.31359,3.90261 -0.006,5.43018 -0.72433,7.83024 -3.10591,10.37635 -1.26132,1.34846 -3.66272,2.68123 -5.41356,3.00451 -0.54052,0.0998 -1.09622,0.31818 -1.23489,0.48527 -0.34195,0.41201 -2.14798,13.01478 -2.14798,14.98887 0,0.86778 0.25059,3.15129 0.55685,5.07447 0.30627,1.92318 0.49619,3.94894 0.42205,4.50168 l -0.1348,1.00499 h 1.01755 c 0.55964,0 1.08059,-0.10201 1.15764,-0.22669 0.0771,-0.12468 0.61638,-2.09348 1.19849,-4.37511 2.00859,-7.87279 3.99288,-12.91024 5.6631,-14.37671 0.7624,-0.66939 1.25002,-0.8323 3.26467,-1.09067 2.91203,-0.37345 6.87444,-0.39615 7.09416,-0.0406 0.29724,0.48094 0.16874,4.14493 -0.41679,11.88452 -0.31867,4.21216 -0.5056,7.8508 -0.4154,8.08585 0.1342,0.34972 0.51319,0.41323 2.08605,0.34955 l 1.92206,-0.0778 -0.007,-1.85208 c -0.004,-1.01864 -0.0636,-2.91956 -0.13229,-4.22426 l -0.12494,-2.37218 0.92604,-0.16968 c 0.50933,-0.0933 1.04511,-0.20837 1.19063,-0.25565 0.14552,-0.0473 0.74083,0.0541 1.32292,0.22528 1.67476,0.49254 2.41033,0.39658 3.03357,-0.39574 0.71983,-0.91511 0.62191,-1.30721 -0.56641,-2.2683 -0.67284,-0.54417 -1.36571,-0.82827 -2.24896,-0.92213 -0.7021,-0.0746 -1.45513,-0.29032 -1.67341,-0.47935 -0.21828,-0.18904 -0.87313,-0.38226 -1.45521,-0.42939 l -1.05833,-0.0857 -0.23523,-1.91921 c -0.13724,-1.11978 -0.13724,-2.6076 0,-3.57187 l 0.23523,-1.65267 2.64583,-0.0814 c 3.35214,-0.10316 7.69824,0.37828 8.71423,0.96532 1.69083,0.97696 3.87533,6.46925 5.96089,14.98694 0.55744,2.27663 1.07999,4.20579 1.16122,4.28703 0.0812,0.0812 3.24261,0.16285 7.02527,0.18137 4.62673,0.0226 6.97327,0.12939 7.17002,0.32613 0.166,0.166 0.21682,0.59383 0.11753,0.98943 l -0.17493,0.69697 -11.54753,0.0689 -11.54753,0.0689 -0.0732,3.90578 -0.0732,3.90578 -9.98093,-0.0693 -9.98093,-0.0693 0.0673,-1.19063 c 0.037,-0.65484 0.13831,-2.30726 0.22514,-3.67205 0.12275,-1.92935 0.0784,-2.53181 -0.19955,-2.70792 -0.60263,-0.38189 -12.81354,-0.29248 -13.12787,0.0961 -0.14714,0.1819 -0.40787,1.40229 -0.57939,2.71198 -0.17153,1.30969 -0.43278,2.9468 -0.58055,3.63802 l -0.26868,1.25677 -9.8338,2.6e-4 -9.83381,2.7e-4 0.0867,-3.41885 c 0.0551,-2.16999 -0.0208,-3.61985 -0.20774,-3.96912 -0.27989,-0.52277 -0.50978,-0.55006 -4.6352,-0.55006 -2.91194,0 -4.40083,0.0973 -4.52339,0.29559 -0.10047,0.16257 -0.16175,1.94851 -0.13618,3.96875 l 0.0465,3.67316 h -9.80131 -9.80131 v -3.65125 c 0,-2.48708 -0.10123,-3.75248 -0.3175,-3.96875 -0.48517,-0.48517 -20.14282,-0.45292 -20.54668,0.0337 -0.4981,0.60016 -1.0749,3.8367 -0.7322,4.10853 0.16358,0.12976 1.30945,0.31715 2.54638,0.41644 2.2206,0.17823 5.13066,0.55744 6.279,0.81821 0.64509,0.1465 2.45225,1.62474 2.45225,2.00593 0,0.13677 -5.75651,0.23718 -13.59757,0.23718 h -13.59757 l -0.0431,-2.97656 c -0.0237,-1.63711 -0.1306,-3.39328 -0.23751,-3.90261 l -0.19439,-0.92604 -4.452334,-0.0727 c -3.18313,-0.052 -4.56204,0.0184 -4.8372,0.24673 -0.31083,0.25797 -0.36846,1.0228 -0.29957,3.97566 l 0.0853,3.65625 -10.997373,-2.6e-4 -10.997377,-2.7e-4 0.356629,-2.57969 z m 143.19194,-3.47765 c 1.3579,-1.7145 1.07044,-2.14474 -1.43298,-2.14474 -1.76071,0 -2.24896,0.18139 -2.24896,0.83554 0,0.60875 1.79189,2.33638 2.42517,2.33819 0.24243,8e-4 0.80798,-0.46235 1.25677,-1.02899 z M 77.214159,282.51894 v -2.24896 l -1.354905,-0.0788 c -1.2373,-0.072 -1.415283,-0.007 -2.050521,0.7479 -0.849511,1.00959 -0.880279,1.7972 -0.109424,2.80094 0.842897,1.09754 1.003356,1.17326 2.324225,1.09679 l 1.190625,-0.0689 z m -3.571875,-0.1323 c 0,-0.21828 0.119062,-0.39687 0.264583,-0.39687 0.145521,0 0.264583,0.17859 0.264583,0.39687 0,0.21829 -0.119062,0.39688 -0.264583,0.39688 -0.145521,0 -0.264583,-0.17859 -0.264583,-0.39688 z m 28.388426,-0.19757 c -0.0511,-2.17654 -0.95017,-8.13083 -1.41258,-9.35463 -0.16601,-0.43937 -0.51961,-0.59274 -1.681324,-0.72928 -2.09106,-0.24576 -4.17691,-1.09509 -5.75722,-2.34425 -1.28701,-1.01732 -1.38368,-1.05059 -1.71924,-0.59167 -0.59461,0.81316 -0.42609,1.86138 0.43819,2.72566 l 0.79375,0.79375 v 5.55496 c 0,3.05523 0.0733,5.74605 0.16294,5.97959 0.14234,0.37093 0.73627,0.4155 4.69636,0.35237 l 4.533414,-0.0723 z m 104.8411,2.24404 c 0.40619,-0.28566 1.44339,-2.14735 1.44339,-2.59076 0,-0.68662 -1.01678,-1.44008 -1.94336,-1.44008 -1.54982,0 -2.2265,1.46823 -1.60791,3.48872 0.18575,0.6067 1.52595,0.95138 2.10788,0.54212 z m 19.96423,-0.11991 c 0,-0.43245 -2.66978,-3.11718 -3.09982,-3.11718 -0.3606,0 -0.50679,2.91979 -0.16338,3.26319 0.3299,0.3299 3.2632,0.19864 3.2632,-0.14601 z m -111.02499,-1.59583 c 0.3183,-1.17159 0.45273,-4.0493 0.22557,-4.82864 -0.27461,-0.94212 -0.54065,-0.96676 -1.16462,-0.10784 -0.42769,0.58872 -0.43447,0.81751 -0.0894,3.01825 0.20535,1.30969 0.37919,2.41102 0.38632,2.4474 0.0617,0.3149 0.51411,-0.0579 0.64214,-0.52917 z m 87.36642,-2.05052 c 0.29389,0 0.37445,-0.47317 0.37162,-2.18281 -0.007,-3.98167 -0.45319,-4.36719 -1.44008,-1.24311 -0.93599,2.96293 -0.84456,3.91178 0.34086,3.53725 0.1938,-0.0612 0.52122,-0.11133 0.7276,-0.11133 z m 21.04691,-5.89249 c -0.4405,-0.44049 -0.68998,-0.003 -0.27999,0.49115 0.24797,0.29878 0.39137,0.33446 0.46435,0.11554 0.0581,-0.17421 -0.0249,-0.44722 -0.18436,-0.60669 z m -49.16691,-4.00314 c 0.26661,-0.36563 -0.0483,-7.61802 -0.34426,-7.92732 -0.48463,-0.50655 -3.9805,5.64427 -4.39995,7.74152 l -0.15992,0.79962 2.34604,-0.16149 c 1.29032,-0.0888 2.44146,-0.29237 2.55809,-0.45233 z m 72.5129,23.19095 c 0.0764,-0.40019 0.34613,-3.434 0.59944,-6.74181 l 0.46057,-6.0142 -1.073,-3.43539 c -0.97953,-3.1361 -1.04845,-3.54269 -0.79116,-4.66706 0.25016,-1.09318 0.22571,-1.27272 -0.21744,-1.59676 -0.27462,-0.20081 -0.7184,-0.3651 -0.9862,-0.3651 -0.26779,0 -0.52571,-0.14883 -0.57315,-0.33073 -0.54941,-2.1067 -1.15027,-3.45952 -1.78955,-4.02912 -0.95234,-0.84855 -0.94485,-1.30792 0.0522,-3.20342 1.33095,-2.53018 1.38774,-2.482 -4.09708,-3.47678 -2.61065,-0.4735 -4.85592,-0.9702 -4.9895,-1.10378 -0.14744,-0.14743 -0.11962,-0.61631 0.0708,-1.19327 0.26635,-0.80704 0.43218,-0.9504 1.0994,-0.9504 1.30825,0 9.87584,1.08725 10.0681,1.27767 0.0986,0.0976 -0.0601,1.34841 -0.35258,2.77947 -0.77351,3.78431 -0.42304,3.7658 1.67348,-0.0884 1.34492,-2.47247 1.72517,-2.91041 2.527,-2.91041 1.78154,0 2.34158,1.28179 1.89487,4.33687 -0.39243,2.68388 -0.15641,6.80199 0.54755,9.55375 0.66315,2.59221 2.17087,5.73924 3.09969,6.46984 0.3792,0.29829 0.70316,0.75054 0.71988,1.005 0.0167,0.25447 0.29636,1.0026 0.62138,1.66253 0.8146,1.6539 1.17655,3.7712 0.99353,5.81159 -0.23397,2.60815 -0.66714,6.39311 -0.82513,7.2099 l -0.14075,0.7276 h -4.36563 -4.36563 z m 17.48465,-0.26459 c 0.0689,-0.5457 0.19521,-2.11461 0.28075,-3.48646 0.2131,-3.41763 0.77224,-7.32861 1.74035,-12.173 1.0572,-5.2902 1.27751,-5.94825 2.02732,-6.05477 0.78525,-0.11157 0.77724,0.39043 -0.0687,4.30304 -1.0128,4.68432 -1.99636,11.55508 -2.17053,15.16223 l -0.15653,3.24115 h -0.88895 c -0.87312,0 -0.88672,-0.0177 -0.76372,-0.99219 z m -224.707279,-19.9183 -2.206003,-1.0368 0.184523,-1.96914 c 0.207396,-2.21321 -0.0618,-5.7169 -0.439243,-5.7169 -0.136067,0 -0.85091,1.25088 -1.588539,2.77975 -0.73763,1.52886 -1.434717,2.83757 -1.54908,2.90825 -0.302729,0.1871 -2.646699,-0.90018 -2.646699,-1.2277 0,-0.46091 4.494157,-9.13822 5.331653,-10.29435 0.670283,-0.9253 0.899028,-1.06517 1.626754,-0.99476 0.787916,0.0762 0.947994,0.27968 2.30201,2.92563 0.800364,1.56403 1.561976,2.84396 1.692471,2.84427 0.137279,2.7e-4 0.150431,-0.8635 0.03121,-2.04995 -0.113329,-1.12778 -0.220099,-2.40771 -0.237262,-2.84427 l -0.03121,-0.79375 h 4.486074 4.486074 l 0.215961,1.03942 c 0.118777,0.57169 0.124105,1.12698 0.01185,1.23399 -0.112265,0.107 -1.930524,0.2941 -4.040576,0.41578 -3.721841,0.21462 -3.839028,0.23934 -3.922438,0.82745 -0.04729,0.33343 0.278752,1.38563 0.724533,2.33824 0.879133,1.87867 0.847431,2.1693 -0.349623,3.20535 -0.672444,0.582 -0.685806,0.66061 -0.685806,4.0349 0,3.39683 -0.0077,3.44114 -0.595312,3.42636 -0.327422,-0.008 -1.588013,-0.48153 -2.801313,-1.05177 z m 110.885179,0.47143 c -0.14391,-0.1819 -0.58541,-1.31427 -0.98111,-2.51637 -0.44683,-1.35744 -0.91137,-2.28835 -1.22594,-2.4567 -0.36043,-0.1929 -0.5065,-0.55663 -0.5065,-1.26129 0,-0.94425 -0.66021,-1.90158 -1.31139,-1.90158 -0.13585,0 -0.79045,0.56555 -1.45467,1.25677 l -1.20766,1.25677 -0.80631,-0.88091 c -0.44347,-0.4845 -0.76977,-0.98403 -0.72512,-1.11006 0.164,-0.46287 7.13481,-8.46007 7.37428,-8.46007 0.36584,0 0.29834,0.69761 -0.28163,2.91042 -0.92741,3.53844 -0.60784,3.55223 1.53239,0.0661 1.41733,-2.3086 1.58364,-2.72839 1.58266,-3.99476 -8e-4,-1.02708 0.15235,-1.62263 0.55859,-2.17209 0.68133,-0.92156 0.74473,-2.73755 0.14523,-4.1604 -0.2653,-0.62966 -0.38432,-1.55064 -0.33073,-2.55901 0.0791,-1.48855 0.0473,-1.58488 -0.57772,-1.74881 l -0.66146,-0.17349 0.74483,-0.30171 c 1.64296,-0.66552 3.34478,-5.3e-4 4.2293,1.65293 0.53482,0.99965 0.58291,1.46432 0.5919,5.71828 0.007,3.21145 0.11187,4.81429 0.34296,5.23099 0.4776,0.86118 0.17045,1.14546 -1.03017,0.95348 -1.2104,-0.19356 -1.37594,0.19926 -0.53465,1.26878 0.95977,1.22016 5.04853,7.88207 5.04377,8.21794 -0.003,0.18485 -0.47349,0.72526 -1.04637,1.20089 l -1.0416,0.86479 -1.02245,-1.39395 c -0.56235,-0.76668 -1.51965,-2.13072 -2.12735,-3.0312 -1.22225,-1.81113 -1.51422,-2.08217 -1.77991,-1.65228 -0.276,0.44658 -0.90089,5.26752 -0.73785,5.6924 0.10246,0.26699 0.61287,0.37629 1.76933,0.37885 1.8775,0.004 2.87463,0.21729 2.75107,0.58797 -0.0476,0.1428 -1.03474,0.64831 -2.19364,1.12336 -1.1589,0.47505 -2.46427,1.0567 -2.90084,1.29256 -0.95058,0.51356 -1.82305,0.5541 -2.18124,0.10136 z m 59.72812,-17.06833 c 0,-0.59835 1.20758,-1.90631 1.79664,-1.94599 0.65932,-0.0444 1.49051,0.0625 1.64294,0.2114 0.25014,0.24428 -1.1175,1.14198 -1.73979,1.14198 -0.35205,0 -0.74597,0.23006 -0.90604,0.52917 -0.34992,0.65383 -0.79375,0.6893 -0.79375,0.0634 z m 34.13125,-0.70326 c 0,-0.3519 0.0734,-0.83119 0.16319,-1.06509 0.25182,-0.65624 0.89514,0.0219 0.89514,0.94355 0,0.58497 -0.1226,0.76136 -0.52917,0.76136 -0.38328,0 -0.52916,-0.17639 -0.52916,-0.63982 z m 2.80819,0.42388 c -0.0734,-0.11876 0.0334,-0.68431 0.23735,-1.25677 0.20595,-0.57808 0.37598,-2.07404 0.38243,-3.36473 0.01,-1.9686 -0.0895,-2.52348 -0.64985,-3.62923 -0.85172,-1.6808 -0.84755,-2.3236 0.0172,-2.65238 1.99165,-0.75723 3.31677,0.2754 3.78205,2.94725 0.31858,1.82943 0.41352,7.04355 0.14116,7.75328 -0.12476,0.32514 -0.56402,0.41852 -1.96875,0.41852 -0.99449,0 -1.86822,-0.0972 -1.94162,-0.21594 z m -97.25887,-1.35812 c -0.46786,-1.1295 -0.1807,-1.64171 0.34865,-0.6219 0.48883,0.94175 0.55682,1.40221 0.20704,1.40221 -0.12786,0 -0.37793,-0.35114 -0.55569,-0.78031 z M 37.79796,255.06995 c -1.939637,-0.14962 -2.071931,-0.34379 -1.932951,-2.83709 0.136702,-2.45246 0.878044,-4.43399 2.095098,-5.6 0.62648,-0.60021 1.035055,-0.75872 1.955726,-0.75872 2.359625,0 2.436122,1.0919 0.247076,3.52665 -1.480828,1.64704 -1.572242,2.37392 -0.523576,4.16333 0.716814,1.22315 0.69266,1.73717 -0.07777,1.65504 -0.246073,-0.0262 -1.039694,-0.0934 -1.763604,-0.14921 z m 6.791806,-3.44112 c 0.05806,-0.9049 0.19176,-1.25677 0.477518,-1.25677 0.497059,0 0.666884,1.23267 0.271586,1.97129 -0.499276,0.93291 -0.834308,0.61334 -0.749104,-0.71452 z m 138.885384,-0.57069 c -0.25291,-0.16018 -0.40689,-1.01173 -0.49804,-2.75426 -0.12745,-2.43661 -0.10923,-2.54343 0.53561,-3.14106 0.36716,-0.34026 1.24286,-0.77253 1.94602,-0.9606 1.15025,-0.30764 1.31235,-0.29558 1.61642,0.12025 0.48444,0.66252 0.45068,3.00688 -0.0433,3.00688 -0.51372,0 -0.63815,0.24923 -0.94752,1.89777 -0.14548,0.77524 -0.46456,1.55835 -0.70906,1.74025 -0.51505,0.38318 -1.37366,0.4242 -1.90013,0.0908 z m -97.917102,-2.7366 c 0.01487,-1.34426 0.999474,-2.34472 2.470745,-2.51055 1.094875,-0.12341 1.223907,-0.082 1.223907,0.39322 0,0.6703 -0.415277,1.01429 -1.5875,1.31499 -0.606674,0.15562 -1.04508,0.48322 -1.271209,0.94989 -0.467402,0.96462 -0.847505,0.89752 -0.835943,-0.14755 z"
       style="fill:#56285a;stroke-width:0.26458335" />
  </g>
</svg>
