<?xml version="1.0" encoding="UTF-8" standalone="no"?>
<!-- Created with Inkscape (http://www.inkscape.org/) -->

<svg
   xmlns:dc="http://purl.org/dc/elements/1.1/"
   xmlns:cc="http://creativecommons.org/ns#"
   xmlns:rdf="http://www.w3.org/1999/02/22-rdf-syntax-ns#"
   xmlns:svg="http://www.w3.org/2000/svg"
   xmlns="http://www.w3.org/2000/svg"
   xmlns:sodipodi="http://sodipodi.sourceforge.net/DTD/sodipodi-0.dtd"
   xmlns:inkscape="http://www.inkscape.org/namespaces/inkscape"
   width="1100"
   height="350"
   viewBox="0 0 291.04166 92.604181"
   version="1.1"
   id="svg1407"
   inkscape:version="0.92.5 (2060ec1f9f, 2020-04-08)"
   sodipodi:docname="meeting2.svg">
  <defs
     id="defs1401">
    <clipPath
       id="freepik--clip-path--inject-90">
      <path
         id="path5037"
         style="fill:#ffffff;stroke:#263238;stroke-width:1.06068194px;stroke-linecap:round;stroke-miterlimit:10"
         d="m 524.15,144.84 c 0,0 -3.25,20.16 -2.15,25.16 2.51,11.19 11.32,10.71 16.83,8.57 5.15,-2 10.29,-9.07 10.95,-10 a 0.38,0.38 0 0 1 0.19,-0.14 c 0.82,-0.23 5.91,-1.85 8.15,-5.78 2.45,-4.29 -2.14,-6.12 -2.14,-6.12"
         inkscape:connector-curvature="0" />
    </clipPath>
    <clipPath
       id="freepik--clip-path-2--inject-90">
      <path
         id="path5040"
         style="fill:#ffffff;stroke:#263238;stroke-width:1.06068194px;stroke-linecap:round;stroke-miterlimit:10"
         d="m 155.64,148.7 c -0.89,-0.33 -1.73,-0.73 -2.6,-1.1 -0.87,-0.37 -2.46,-0.57 -3.06,2.16 -0.89,4 5.3,7.3 3.31,10.61 a 10.87,10.87 0 0 1 -5.3,4.43 4.19,4.19 0 0 1 -1.11,0.22 c -1.77,0.22 -4.64,0 -3.76,3.09 0.88,3.09 3.76,5.75 5.53,5.75 h 1.77 c 0,0 2,6 9.5,9.28 7.5,3.28 12.6,3.1 14.37,-1.1 1.77,-4.2 3.1,-7.74 3.1,-13.27 0,-5.53 -2,-14.81 -2,-14.81 0,0 -1.77,2.44 -8.62,-0.66 -4.53,-2.05 -8.77,-3.71 -11.13,-4.6 z"
         inkscape:connector-curvature="0" />
    </clipPath>
  </defs>
  <sodipodi:namedview
     id="base"
     pagecolor="#ffffff"
     bordercolor="#666666"
     borderopacity="1.0"
     inkscape:pageopacity="0.0"
     inkscape:pageshadow="2"
     inkscape:zoom="1.2354545"
     inkscape:cx="550"
     inkscape:cy="175"
     inkscape:document-units="mm"
     inkscape:current-layer="layer1"
     showgrid="false"
     inkscape:window-width="1920"
     inkscape:window-height="1007"
     inkscape:window-x="0"
     inkscape:window-y="0"
     inkscape:window-maximized="1"
     units="px" />
  <metadata
     id="metadata1404">
    <rdf:RDF>
      <cc:Work
         rdf:about="">
        <dc:format>image/svg+xml</dc:format>
        <dc:type
           rdf:resource="http://purl.org/dc/dcmitype/StillImage" />
        <dc:title></dc:title>
      </cc:Work>
    </rdf:RDF>
  </metadata>
  <g
     inkscape:label="Layer 1"
     inkscape:groupmode="layer"
     id="layer1"
     transform="translate(0,-204.39581)">
    <g
       id="g3970"
       transform="matrix(0.26458333,0,0,0.26458333,4.6342066,187.90452)">
      <path
         id="path3924"
         style="fill:#ffffff;stroke:#263238;stroke-linecap:round;stroke-linejoin:round"
         d="m 127.37,178.57 3.08,30.43 14,40.53 -4.79,2.74 -16.44,-37.1 -8.21,-31.85 c 0,0 -0.69,-9.58 2.74,-11 3.43,-1.42 8.25,0.09 9.62,6.25 z"
         inkscape:connector-curvature="0" />
      <path
         id="path3926"
         style="fill:#ffffff;stroke:#263238;stroke-linecap:round;stroke-linejoin:round"
         d="m 144.49,249.57 c 0,0 3.08,6.51 3.43,8.22 0.35,1.71 0.7,5.2 -0.65,6.76 -1.63,1.88 -3.12,0.43 -3.12,0.43 0,0 -4.11,-1 -4.11,-4.45 0,-3.45 -0.34,-8.22 -0.34,-8.22 z"
         inkscape:connector-curvature="0" />
      <line
         id="line3928"
         style="fill:none;stroke:#263238;stroke-linecap:round;stroke-linejoin:round"
         y2="261.28"
         x2="146.89999"
         y1="259.78"
         x1="141.13" />
      <path
         id="path3930"
         style="fill:#ffffff;stroke:#263238;stroke-linecap:round;stroke-linejoin:round"
         d="m 142.51,255.89 1.64,2.58 c 0,0 -3.82,6.53 -1.77,4.82 2.05,-1.71 5.88,-3.79 5.54,-5.5 a 27.2,27.2 0 0 0 -2.28,-5.16"
         inkscape:connector-curvature="0" />
      <path
         id="path3932"
         style="fill:#263238;stroke:#263238;stroke-linecap:round;stroke-linejoin:round"
         d="m 111,142 c 0,0 -3.52,-3.8 -11.64,-1.36 -8.12,2.44 -10,15.44 -9.75,21.93 0.25,6.49 6.5,13.81 4.61,17.06 -1.89,3.25 -8.94,10.83 -8.4,19 0.54,8.17 7.31,14.62 17.06,11.64 9.75,-2.98 8.12,-14.91 6.18,-19.27 -1.94,-4.36 2.17,-6.23 3.52,-15.71 1.35,-9.48 -7.31,-17.33 -7.31,-24.1 0,-6.77 7,-5.68 7,-5.68 z"
         inkscape:connector-curvature="0" />
      <path
         id="path3934"
         style="fill:none;stroke:#ffffff;stroke-width:0.5px;stroke-linecap:round;stroke-linejoin:round"
         d="m 98.8,167.7 c 1.28,2.64 2.77,5.46 4.25,8.5 4.94,10.08 1.08,13.72 -6.43,19.3 -7.51,5.58 -5.79,12.44 -3.86,13.5"
         inkscape:connector-curvature="0" />
      <path
         id="path3936"
         style="fill:none;stroke:#ffffff;stroke-width:0.5px;stroke-linecap:round;stroke-linejoin:round"
         d="m 108.42,144.67 c 0,0 -10.08,0.86 -12.66,7.29 -1.56,3.91 -0.36,8.29 1.94,13.39"
         inkscape:connector-curvature="0" />
      <path
         id="path3938"
         style="fill:none;stroke:#ffffff;stroke-width:0.5px;stroke-linecap:round;stroke-linejoin:round"
         d="m 101.05,206.49 a 6.06,6.06 0 0 0 2.43,0.38"
         inkscape:connector-curvature="0" />
      <path
         id="path3940"
         style="fill:none;stroke:#ffffff;stroke-width:0.5px;stroke-linecap:round;stroke-linejoin:round"
         d="m 111,144 c 0,0 -9.44,1.71 -11.58,8.57 -2.14,6.86 10.51,17 11.15,24.46 0.64,7.46 -8.37,11.82 -11.57,17.61 -2.25,4.06 -2,8.53 0.37,10.78"
         inkscape:connector-curvature="0" />
      <path
         id="path3942"
         style="fill:#ffffff;stroke:#263238;stroke-linecap:round;stroke-linejoin:round"
         d="m 135.22,282.07 c 0,0 -2.33,20.12 -4.67,26.54 -2.34,6.42 -7.58,56.87 -7.87,59.79 -0.29,2.92 7.58,9.62 10.79,11.67 3.21,2.05 1.75,2.62 -1.75,2.91 -3.5,0.29 -7.58,-0.29 -9.33,-3.5 -1.75,-3.21 -5.84,-4.08 -5.84,-4.08 l -0.58,7 h -1.17 l -0.87,-8.75 a 10.08,10.08 0 0 1 0.87,-5.83 c 1.46,-3.21 2,-9.92 2,-19 0,-9.08 -1.75,-23.63 -0.88,-30.63 0.87,-7 4.38,-12.25 4.38,-18.08 0,-5.83 0.29,-14.58 0.29,-14.58 z"
         inkscape:connector-curvature="0" />
      <path
         id="path3944"
         style="fill:#263238;stroke:#263238;stroke-linecap:round;stroke-linejoin:round"
         d="m 113.93,373.65 a 9.66,9.66 0 0 1 0.37,-4.49 c 1.81,3.06 7,7.21 11,8.86 a 14.59,14.59 0 0 0 6.89,1.16 c 0.47,0.35 0.91,0.65 1.28,0.89 3.21,2 1.75,2.62 -1.75,2.91 -3.5,0.29 -7.58,-0.29 -9.33,-3.5 -1.75,-3.21 -5.84,-4.08 -5.84,-4.08 l -0.58,7 h -1.17 z"
         inkscape:connector-curvature="0" />
      <path
         id="path3946"
         style="fill:#ffffff;stroke:#263238;stroke-linecap:round;stroke-linejoin:round"
         d="m 118.3,285.28 c 0,0 -5,14.87 -9.62,27.7 -4.62,12.83 -15.75,42.29 -16.92,47.54 -1.17,5.25 -1.75,14.88 -5,19.84 -3.25,4.96 -6.42,7.29 -5.84,-1.46 0.58,-8.75 5.84,-15.17 7,-21.88 1.16,-6.71 1.75,-30.91 5.83,-41.7 4.08,-10.79 8.46,-19.54 9,-22.75 a 75.37,75.37 0 0 0 0.58,-9.63 z"
         inkscape:connector-curvature="0" />
      <path
         id="path3948"
         style="fill:#263238;stroke:#263238;stroke-linecap:round;stroke-linejoin:round"
         d="m 81.52,375.15 a 8.66,8.66 0 0 0 1.48,4.62 c 1.68,1.88 4.39,-1.77 5.8,-4 a 18.93,18.93 0 0 1 -2,4.58 c -3.21,4.95 -6.42,7.29 -5.84,-1.46 a 26.24,26.24 0 0 1 0.56,-3.74 z"
         inkscape:connector-curvature="0" />
      <path
         id="path3950"
         style="fill:#ffffff;stroke:#263238;stroke-linecap:round;stroke-linejoin:round"
         d="m 116,167.9 c 0,0 -1.75,1.46 -2.92,11.38 -1.17,9.92 6.13,40.83 6.13,40.83 0,0 -12.54,20.54 -15.46,30.75 -2.92,10.21 -4.67,48.46 -4.67,48.46 0,0 6.13,2.34 18.67,3.21 12.54,0.87 19.25,-2.33 19.25,-2.33 0,0 0.58,-54.59 0.58,-63 0,-8.41 0.59,-27.54 1.46,-29.87 0.87,-2.33 3.5,-8.46 3.5,-10.79 0,-2.33 -17.54,-27.18 -17.54,-27.18 z"
         inkscape:connector-curvature="0" />
      <path
         id="path3952"
         style="fill:#263238;stroke:#263238;stroke-linecap:round;stroke-linejoin:round"
         d="m 103.72,250.86 c 2.3,-8 11.82,-29.28 15.22,-32.94 5.17,1.72 14.6,3.42 18.81,2.16 -0.13,3 -0.2,14.2 -0.2,17.07 0,8.46 -0.58,63 -0.58,63 0,0 -6.71,3.21 -19.25,2.33 -12.54,-0.88 -18.67,-3.21 -18.67,-3.21 0,0 1.75,-38.2 4.67,-48.41 z"
         inkscape:connector-curvature="0" />
      <path
         id="path3954"
         style="fill:#263238;stroke:#263238;stroke-linecap:round;stroke-linejoin:round"
         d="m 122.47,133.52 c 0,0 3.13,-6.82 9.32,-6.82 6.19,0 8.94,5.5 7.57,10.31 -1.37,4.81 4.12,3.44 4.81,6.54 0.69,3.1 -4.47,5.15 -7.22,5.15 -2.75,0 -14.48,-15.18 -14.48,-15.18 z"
         inkscape:connector-curvature="0" />
      <path
         id="path3956"
         style="fill:none;stroke:#ffffff;stroke-width:0.5px;stroke-linecap:round;stroke-linejoin:round"
         d="m 131.51,132.82 c 1.84,-1 4,-1.72 5,-0.16 1.93,3 -4.07,5.36 -2.14,8.58 1.93,3.22 6.65,2.36 6.43,3.43 -0.22,1.07 -3.21,1.71 -3.21,1.71"
         inkscape:connector-curvature="0" />
      <path
         id="path3958"
         style="fill:none;stroke:#ffffff;stroke-width:0.5px;stroke-linecap:round;stroke-linejoin:round"
         d="m 128.36,135 c 0,0 0.59,-0.51 1.47,-1.13"
         inkscape:connector-curvature="0" />
      <path
         id="path3960"
         style="fill:#ffffff;stroke:#263238;stroke-linecap:round;stroke-linejoin:round"
         d="m 138.34,149.39 a 3.12,3.12 0 0 1 -1,-1.26 c -0.5,-3.69 -1.58,-7.32 -3.62,-9.36 a 19.83,19.83 0 0 0 -11.23,-5.25 7.91,7.91 0 0 0 -3.71,0.34 c -5.31,1.86 -9.87,5.53 -8.89,14.38 1.08,9.75 8.67,12.19 8.67,12.19 l 0.54,6 7.58,3.52 0.27,-6.5 c 0,0 5.14,2.16 7,1.89 1.86,-0.27 2.44,-2.71 3.25,-6.23 a 26.34,26.34 0 0 0 0.44,-4.87 l 2.27,-2.26 c 1.29,-1.31 0.02,-1.63 -1.57,-2.59 z"
         inkscape:connector-curvature="0" />
      <path
         id="path3962"
         style="fill:#263238;stroke:#263238;stroke-linecap:round;stroke-linejoin:round"
         d="m 109.87,148.24 c -1,-8.85 3.58,-12.52 8.89,-14.38 a 7.91,7.91 0 0 1 3.71,-0.34 21.49,21.49 0 0 1 8.12,2.82 c -1.52,-0.31 1.07,4.16 -1.31,7 a 22.13,22.13 0 0 1 -7.77,6.22 c 0,0 -2.7,-2.17 -3.52,0.81 -0.82,2.98 -0.54,5.14 1.63,5.69 2.17,0.55 3,0 3,0 0,0 -1.44,3.41 -4,4.82 v -0.49 c 0,0 -7.62,-2.39 -8.75,-12.15 z"
         inkscape:connector-curvature="0" />
      <polygon
         id="polygon3964"
         style="fill:#ffffff;stroke:#263238;stroke-linecap:round;stroke-linejoin:round"
         points="129.1,176.07 113.64,167.9 115.1,160.61 130.55,168.19 " />
      <path
         id="path3966"
         style="fill:#ffffff;stroke:#263238;stroke-linecap:round;stroke-linejoin:round"
         d="m 123.08,234.63 a 32.4,32.4 0 0 0 4.86,0.66 c 1.27,-0.08 3,-1.51 4.28,-0.9 1.28,0.61 3.07,4.46 3.07,4.46 0,0 1.7,0.86 1.21,1.77 -0.49,0.91 -2.59,1.75 -2.59,1.75 0,0 -2,1.89 -3.16,2.08 -1.16,0.19 -8.23,-5 -8.23,-5 z"
         inkscape:connector-curvature="0" />
      <path
         id="path3968"
         style="fill:#ffffff;stroke:#263238;stroke-linecap:round;stroke-linejoin:round"
         d="m 123.83,238.37 a 2.45,2.45 0 0 0 -0.75,-3.74 l -19.43,-18.2 21.16,-32.9 a 7.61,7.61 0 0 0 -13.15,-7.65 l -18.34,36.45 a 5.06,5.06 0 0 0 -0.16,7.1 l 0.07,0.07 c 1.84,2.84 22.08,17.69 28,19.63 a 2.43,2.43 0 0 0 2.6,-0.76 z"
         inkscape:connector-curvature="0" />
    </g>
    <g
       id="g4026"
       transform="matrix(0.26458333,0,0,0.26458333,104.32543,187.62317)">
      <path
         id="path3972"
         style="fill:#ffffff;stroke:#263238;stroke-linecap:round;stroke-linejoin:round"
         d="m 314.18,166.81 14.11,39.55 c 0,0 -1.86,8.95 -7.46,8.58 -5.6,-0.37 -7.09,-8.21 -8.58,-9.33 -1.49,-1.12 -3.73,-9.7 -3.73,-9.7 z"
         inkscape:connector-curvature="0" />
      <polygon
         id="polygon3974"
         style="fill:#ffffff;stroke:#263238;stroke-linecap:round;stroke-linejoin:round"
         points="304.93,230.77 314.18,166.81 289.42,159.06 277.68,158.88 254.74,167.16 263.54,230.77 " />
      <polygon
         id="polygon3976"
         style="fill:#92e3a9;stroke:#263238;stroke-linecap:round;stroke-linejoin:round"
         points="284.02,162.76 279.89,169.78 283.2,174.77 280.33,217.09 284.55,228.11 288.88,217.39 285.17,175.4 288.15,168.19 " />
      <polygon
         id="polygon3978"
         style="fill:#ffffff;stroke:#263238;stroke-linecap:round;stroke-linejoin:round"
         points="291.83,171.85 284.47,167.72 278.56,172.15 274.67,160.6 277.38,154.75 289.47,154.46 292.42,157.11 " />
      <path
         id="path3980"
         style="fill:#ffffff;stroke:#263238;stroke-linecap:round;stroke-linejoin:round"
         d="m 290.72,151.75 -0.92,7.43 -6.62,8.54 -4.95,-8.66 v -13.93 c 0,0 8.67,2.17 12.49,6.62 z"
         inkscape:connector-curvature="0" />
      <path
         id="path3982"
         style="fill:#ffffff;stroke:#263238;stroke-linecap:round;stroke-linejoin:round"
         d="m 274.83,136.31 c 0,-6.75 4.92,-12.22 11,-12.22 6.08,0 9.45,5.77 9.45,12.52 0,2.18 -0.45,5.92 -0.63,7.91 -0.31,3.4 -1.34,4.84 -3.35,7.89 -6.59,10 -12,-4.67 -14.77,-9.6 a 13.12,13.12 0 0 1 -1.7,-6.5 z"
         inkscape:connector-curvature="0" />
      <polyline
         id="polyline3984"
         style="fill:#ffffff;stroke:#263238;stroke-linecap:round;stroke-linejoin:round"
         points="290.61 138.43 291.54 145.4 288.27 145.31" />
      <path
         id="path3986"
         style="fill:#ffffff;stroke:#263238;stroke-linecap:round;stroke-linejoin:round"
         d="m 297.91,137.22 -15.72,0.07 a 3.67,3.67 0 0 0 0.78,3.57 c 1,1 5.07,0.65 5.72,0.39 0.65,-0.26 1,-3.12 1,-3.12 h 1.17 c 0,0 0.13,3 1.81,3.25 1.68,0.25 3.87,0.17 4.29,-0.13 1.86,-1.25 0.95,-4.03 0.95,-4.03 z"
         inkscape:connector-curvature="0" />
      <path
         id="path3988"
         style="fill:#263238;stroke:#263238;stroke-linecap:round;stroke-linejoin:round"
         d="m 276.77,143.94 c 0,0 3.54,7.25 4.38,9.76 0.84,2.51 5,4.47 9.21,3.07 4.21,-1.4 3.07,-7.63 3.07,-7.63 0,0 -4.47,-3.82 -5.3,-3 -0.83,0.82 -5.31,4.47 -5.59,3.63 -0.28,-0.84 -2.23,-5.86 -2.23,-5.86 l -0.91,-3.56 1.87,-1.2 a 1.4,1.4 0 0 0 0.25,-1.88 L 280.64,136 a 1.42,1.42 0 0 1 -0.23,-1.08 c 0.23,-1.09 0.86,-3.35 2.32,-4 2,-0.83 4.43,0.38 6.67,0.94 2.24,0.56 4.67,-1.46 4.67,-1.46 l 1,3.32 a 15.93,15.93 0 0 0 4.54,-7.7 c 1.12,-4.75 -10.33,-6.7 -14,-6.7 -3.67,0 -9.49,2 -11.17,7.26 -1.68,5.26 1.34,16.42 2.33,17.36 z"
         inkscape:connector-curvature="0" />
      <path
         id="path3990"
         style="fill:none;stroke:#ffffff;stroke-width:0.5px;stroke-linecap:round;stroke-linejoin:round"
         d="m 285.83,126.05 c 0,0 2.08,3.12 -0.65,3.77 -2.73,0.65 -8.05,-1.69 -10.39,-0.78"
         inkscape:connector-curvature="0" />
      <path
         id="path3992"
         style="fill:none;stroke:#ffffff;stroke-width:0.5px;stroke-linecap:round;stroke-linejoin:round"
         d="m 281.15,132.93 c 0,0 -4.28,-0.52 -6,1.3"
         inkscape:connector-curvature="0" />
      <path
         id="path3994"
         style="fill:none;stroke:#ffffff;stroke-width:0.5px;stroke-linecap:round;stroke-linejoin:round"
         d="m 291.45,148.7 c 0,0 -3.15,1.64 -4.71,-0.31"
         inkscape:connector-curvature="0" />
      <path
         id="path3996"
         style="fill:#ffffff;stroke:#263238;stroke-linecap:round;stroke-linejoin:round"
         d="m 277.3,141.73 c 0,0 -3.09,-3.4 -3.09,0.31 0,3.71 0.93,3.71 2.78,5 1.85,1.29 2.48,-0.31 2.48,-0.31"
         inkscape:connector-curvature="0" />
      <path
         id="path3998"
         style="fill:#263238;stroke:#263238;stroke-linecap:round;stroke-linejoin:round"
         d="m 318.56,372.24 h 0.14 l -0.27,-1.36 -13.5,-140.1 h -41.39 l -13.61,141.45 h 0.15 l 8.78,0.75 c 0,0 9.74,-32.7 9.74,-35.14 0,-2.44 2.78,-25 2.78,-25 l 13.81,-48.55 12.21,48.55 c 0,0 2.78,22.61 2.78,25 0,2.39 9.75,35.16 9.75,35.16 l 8.26,-0.71 h 0.37 z"
         inkscape:connector-curvature="0" />
      <line
         id="line4000"
         style="fill:none;stroke:#ffffff;stroke-width:0.5px;stroke-linecap:round;stroke-linejoin:round"
         y2="252.17"
         x2="292.63"
         y1="239.02"
         x1="301.84" />
      <line
         id="line4002"
         style="fill:none;stroke:#ffffff;stroke-width:0.5px;stroke-linecap:round;stroke-linejoin:round"
         y2="251.19"
         x2="291.32001"
         y1="241.98"
         x1="296.91" />
      <line
         id="line4004"
         style="fill:none;stroke:#ffffff;stroke-width:0.5px;stroke-linecap:round;stroke-linejoin:round"
         y2="250.2"
         x2="278.82001"
         y1="241.33"
         x1="270.60999" />
      <line
         id="line4006"
         style="fill:none;stroke:#ffffff;stroke-width:0.5px;stroke-linecap:round;stroke-linejoin:round"
         y2="256.45001"
         x2="281.78"
         y1="244.61"
         x1="269.95001" />
      <line
         id="line4008"
         style="fill:none;stroke:#ffffff;stroke-width:0.5px;stroke-linecap:round;stroke-linejoin:round"
         y2="232.12"
         x2="302.5"
         y1="232.12"
         x1="266" />
      <path
         id="path4010"
         style="fill:#263238;stroke:#263238;stroke-linecap:round;stroke-linejoin:round"
         d="m 250.08,372.23 c 0,0 -5.27,4.15 -8.31,5.29 -3.04,1.14 -8.72,4.17 -8.72,4.17 0,0 0,1.9 4.93,1.9 h 19.35 L 257,372.23 Z"
         inkscape:connector-curvature="0" />
      <path
         id="path4012"
         style="fill:#ffffff;stroke:#263238;stroke-linecap:round;stroke-linejoin:round"
         d="m 257.26,381.52 a 188.23,188.23 0 0 1 -23.18,-0.37 l -1,0.54 c 0,0 0,1.9 4.93,1.9 h 19.35 z"
         inkscape:connector-curvature="0" />
      <path
         id="path4014"
         style="fill:#263238;stroke:#263238;stroke-linecap:round;stroke-linejoin:round"
         d="m 317.76,372.23 c 0,0 5.28,4.15 8.31,5.29 3.03,1.14 8.73,4.17 8.73,4.17 0,0 0,1.9 -4.94,1.9 h -19.34 l 0.35,-11.36 z"
         inkscape:connector-curvature="0" />
      <path
         id="path4016"
         style="fill:#ffffff;stroke:#263238;stroke-linecap:round;stroke-linejoin:round"
         d="m 310.58,381.52 a 188.23,188.23 0 0 0 23.18,-0.37 l 1,0.54 c 0,0 0,1.9 -4.94,1.9 h -19.3 z"
         inkscape:connector-curvature="0" />
      <polygon
         id="polygon4018"
         style="fill:#ffffff;stroke:#263238;stroke-linecap:round;stroke-linejoin:round"
         points="259.58,196.75 254.74,167.16 239.5,207.85 254.12,207.85 " />
      <path
         id="path4020"
         style="fill:#ffffff;stroke:#263238;stroke-linecap:round;stroke-linejoin:round"
         d="m 321.41,201.55 c -6.1,-2.52 -25.67,-3.77 -26.69,-3.77 -1.02,0 -32.83,-2.62 -35.44,-3 -2.61,-0.38 -5.6,5.6 -5.6,5.6 l 13.8,-0.38 16.79,3.36 c 0,0 34,12.31 36.56,11.57 a 2.28,2.28 0 0 0 0.92,-0.58"
         inkscape:connector-curvature="0" />
      <path
         id="path4022"
         style="fill:#ffffff;stroke:#263238;stroke-linecap:round;stroke-linejoin:round"
         d="m 250.32,199.64 52.6,-5.22 0.38,4.47 -45.52,13.81 c 0,0 -8.2,1.86 -14.55,0.74 -6.35,-1.12 -3.35,-7.46 -1.86,-11.19"
         inkscape:connector-curvature="0" />
      <polygon
         id="polygon4024"
         style="fill:#ffffff;stroke:#263238;stroke-linecap:round;stroke-linejoin:round"
         points="303.3,198.9 302.93,194.42 313,194.04 315.98,200.01 " />
    </g>
    <g
       id="g4094"
       transform="matrix(0.26458333,0,0,0.26458333,46.621736,187.25837)">
      <path
         id="path4028"
         style="fill:#263238;stroke:#263238;stroke-linecap:round;stroke-linejoin:round"
         d="M 396.43,315.28 391.88,384 a 1.39,1.39 0 0 1 -1.38,1.29 v 0 a 1.37,1.37 0 0 1 -1.37,-1.42 L 391,315.28 Z"
         inkscape:connector-curvature="0" />
      <path
         id="path4030"
         style="fill:#263238;stroke:#263238;stroke-linecap:round;stroke-linejoin:round"
         d="m 408.07,315.28 4.55,68.72 a 1.38,1.38 0 0 0 1.37,1.29 v 0 a 1.38,1.38 0 0 0 1.38,-1.42 l -1.89,-68.55 z"
         inkscape:connector-curvature="0" />
      <path
         id="path4032"
         style="fill:#263238;stroke:#263238;stroke-linecap:round;stroke-linejoin:round"
         d="M 362.45,315.28 367,384 a 1.38,1.38 0 0 0 1.37,1.29 v 0 a 1.38,1.38 0 0 0 1.38,-1.42 l -1.9,-68.55 z"
         inkscape:connector-curvature="0" />
      <path
         id="path4034"
         style="fill:#263238;stroke:#263238;stroke-linecap:round;stroke-linejoin:round"
         d="M 343.86,315.28 339.31,384 a 1.39,1.39 0 0 1 -1.38,1.29 v 0 a 1.39,1.39 0 0 1 -1.38,-1.42 l 1.9,-68.55 z"
         inkscape:connector-curvature="0" />
      <path
         id="path4036"
         style="fill:#ffffff;stroke:#263238;stroke-linecap:round;stroke-linejoin:round"
         d="m 423.13,246 c 0,0 -45.4,-1.7 -49.24,-1.7 -3.84,0 -4.73,1.7 -4.73,1.7 l -6.48,45.69 c 0,0 -20.15,-5.75 -24.1,-5 -3.95,0.75 1.95,29.42 1.95,29.42 h 22.8 l 0.41,-1.72 h 51.48 l 13.67,-65.12 c -0.83,-2.98 -5.76,-3.27 -5.76,-3.27 z"
         inkscape:connector-curvature="0" />
      <path
         id="path4038"
         style="fill:#ffffff;stroke:#263238;stroke-linecap:round;stroke-linejoin:round"
         d="m 405.85,274.58 c 0,0 4.62,30 -0.68,33.5 -0.82,0.54 -5.27,3.1 -9.43,2.68 -3.34,-0.34 -26.94,0 -26.94,0 0,0 -3.28,-6.24 -3.94,-10.84 -0.66,-4.6 4.5,-24.34 4.5,-24.34 z"
         inkscape:connector-curvature="0" />
      <path
         id="path4040"
         style="fill:#92e3a9;stroke:#263238;stroke-linecap:round;stroke-linejoin:round"
         d="m 367.2,290.65 c 0,0 -34.16,3.55 -35.77,4.51 -1.61,0.96 -9,7.41 -7.73,11.6 1.27,4.19 -1.93,4.51 1,5.16 2.93,0.65 44.46,0.64 44.46,0.64"
         inkscape:connector-curvature="0" />
      <rect
         id="rect4042"
         style="fill:#ffffff;stroke:#263238;stroke-linecap:round;stroke-linejoin:round"
         transform="rotate(180,376.715,313.025)"
         height="6.0599999"
         width="81.169998"
         y="309.98999"
         x="336.13" />
      <path
         id="path4044"
         style="fill:#92e3a9;stroke:#263238;stroke-linecap:round;stroke-linejoin:round"
         d="m 398.13,291.94 h -48.9 c 0,0 -2.57,2.9 -2.9,9 -0.33,6.1 0.33,7.41 4.84,9 4.51,1.59 44.57,0.78 44.57,0.78"
         inkscape:connector-curvature="0" />
      <path
         id="path4046"
         style="fill:#ffffff;stroke:#263238;stroke-linecap:round;stroke-linejoin:round"
         d="m 359.6,369.54 -5.12,-12.13 -8.39,1.59 6.42,10.82 -3.7,7.41 -8,5.23 c 0,0 -0.93,0.92 3.07,0.61 4,-0.31 12.3,0 12.3,0 l 5.23,-6.15 c 0,0 1.9,-3.13 -1.81,-7.38 z"
         inkscape:connector-curvature="0" />
      <polygon
         id="polygon4048"
         style="fill:#263238;stroke:#263238;stroke-linecap:round;stroke-linejoin:round"
         points="359.13,378.81 361.84,374.84 362.05,382.77 360.8,382.77 " />
      <path
         id="path4050"
         style="fill:#263238;stroke:#263238;stroke-linecap:round;stroke-linejoin:round"
         d="m 356.19,383.11 5.23,-6.15 c 0,0 1.35,-2.29 -0.51,-5.59 -3.72,6.36 -8.67,8.27 -8.67,8.27 l -5.16,-1.24 -6.26,4.1 c 0,0 -0.93,0.92 3.07,0.61 4,-0.31 12.3,0 12.3,0 z"
         inkscape:connector-curvature="0" />
      <path
         id="path4052"
         style="fill:#92e3a9;stroke:#263238;stroke-linecap:round;stroke-linejoin:round"
         d="m 339.49,307.73 17.15,51.85 -12.17,2.16 -24,-54 c 0,0 -1.93,-8.06 3.22,-10.63 5.15,-2.57 20.3,-3.87 20.3,-3.87"
         inkscape:connector-curvature="0" />
      <path
         id="path4054"
         style="fill:#263238;stroke:#263238;stroke-linecap:round;stroke-linejoin:round"
         d="m 394.5,316.05 c 0,0 -5.91,-28.71 -1.95,-29.42 3.96,-0.71 24.1,5 24.1,5 L 423.13,246 c 0,0 6.84,-1.08 7.56,5 0.72,6.08 -13.39,65.05 -13.39,65.05 z"
         inkscape:connector-curvature="0" />
      <path
         id="path4056"
         style="fill:#ffffff;stroke:#263238;stroke-linecap:round;stroke-linejoin:round"
         d="m 324.91,231.52 -3.05,-5 a 3.23,3.23 0 0 0 -2.81,-1.54 l -2.87,0.05 -4.91,-1.47 a 1.64,1.64 0 0 0 -1.74,0.55 l -0.18,0.23 4.52,2 -4.51,1.66 -4.79,-2.43 a 0.9,0.9 0 0 0 -1.13,0.26 v 0 a 0.9,0.9 0 0 0 0.16,1.26 l 6.7,5.17 a 1.87,1.87 0 0 0 1.5,0.36 l 7.41,-1.49 2.07,2.26 z"
         inkscape:connector-curvature="0" />
      <polygon
         id="polygon4058"
         style="fill:#ffffff;stroke:#263238;stroke-linecap:round;stroke-linejoin:round"
         points="373.12,250.65 376.57,221.26 349.1,249.99 322.88,228.8 319.26,231.43 348.11,264.12 " />
      <path
         id="path4060"
         style="fill:#ffffff;stroke:#263238;stroke-linecap:round;stroke-linejoin:round"
         d="m 417.67,228.6 14.4,44.25 -12.42,0.36 -12.35,-20.77 c 0,0 6.94,-20.95 10.37,-23.84 z"
         inkscape:connector-curvature="0" />
      <path
         id="path4062"
         style="fill:#ffffff;stroke:#263238;stroke-linecap:round;stroke-linejoin:round"
         d="m 402,221 15.67,7.65 -13.12,36.69 1.55,10.23 -36.74,0.06 4.38,-16.48 -3,-10.56 a 8.09,8.09 0 0 1 -0.06,-4.2 l 5.88,-23.08 15.44,-2.48 z"
         inkscape:connector-curvature="0" />
      <path
         id="path4064"
         style="fill:#ffffff;stroke:#263238;stroke-linecap:round;stroke-linejoin:round"
         d="m 401.25,218.85 c 0,0 3.08,2.08 3.18,3.93 0.05,1.09 0,3 -0.1,4.46 a 9.47,9.47 0 0 1 -0.77,3.31 l -5.55,6.7 -6.42,-5.07 -5.33,2.72 c 0,0 -1,-8.17 1.33,-13.87 2.33,-5.7 12.47,-3.61 13.66,-2.18 z"
         inkscape:connector-curvature="0" />
      <path
         id="path4066"
         style="fill:#ffffff;stroke:#263238;stroke-linecap:round;stroke-linejoin:round"
         d="m 405.66,203 c 0,0 -1.26,4.53 -1.85,7.53 -0.59,3 -1.78,9 -1.67,11.25 0.11,2.25 -9.36,11.83 -10.55,10.4 -1.19,-1.43 -2.44,-9.74 -2.44,-9.74 L 390.33,209 c 0,0 12.34,-13.67 15.33,-6 z"
         inkscape:connector-curvature="0" />
      <path
         id="path4068"
         style="fill:#ffffff;stroke:#263238;stroke-linecap:round;stroke-linejoin:round"
         d="m 385.87,196 c 0,0 -1.69,2.79 -1.69,4 0,1.21 0.59,3.58 0.49,4.27 -0.1,0.69 -1.78,3 -2,3.78 a 1.38,1.38 0 0 0 0.69,1.69 13.2,13.2 0 0 1 1.19,0.69 c 0,0 0.5,6.16 1.3,7.75 0.8,1.59 1.49,2.29 3.87,2.49 2.38,0.2 8.05,-2.29 8.84,-4.28 0.79,-1.99 0.9,-4.37 1,-7.25 0.1,-2.88 -1.89,-7 -3.38,-10.93 -1.49,-3.93 -7.73,-6.09 -10.31,-2.21 z"
         inkscape:connector-curvature="0" />
      <circle
         id="circle4070"
         style="fill:#263238;stroke:#263238;stroke-linecap:round;stroke-linejoin:round"
         r="7.6300001"
         cy="208.71001"
         cx="411.51999" />
      <path
         id="path4072"
         style="fill:#263238;stroke:#263238;stroke-linecap:round;stroke-linejoin:round"
         d="m 385.83,195.57 c 0,0 3.07,-2.65 8.59,2.62 5.52,5.27 3.42,12.89 7.11,14.47 3.69,1.58 10.52,-6.32 11.31,-10.26 0.79,-3.94 -1.58,-12.11 -8.95,-13.69 -7.37,-1.58 -16.4,-0.5 -18.06,6.86 z"
         inkscape:connector-curvature="0" />
      <path
         id="path4074"
         style="fill:#263238;stroke:#263238;stroke-linecap:round;stroke-linejoin:round"
         d="m 385.83,195.57 a 4.1,4.1 0 0 1 4.65,-4.49 c 5,0.27 5.52,8.16 8.15,11.32 2.63,3.16 3.95,2.63 3.95,2.63 0,0 -4.47,1.31 -7.37,-0.27 -2.9,-1.58 -4.3,-10.49 -9.38,-9.19 z"
         inkscape:connector-curvature="0" />
      <path
         id="path4076"
         style="fill:none;stroke:#ffffff;stroke-width:0.5px;stroke-linecap:round;stroke-linejoin:round"
         d="m 394,190.16 a 15.6,15.6 0 0 1 6,6.81 c 2.27,4.81 2.27,8.78 7.66,8.5 0,0 -2.55,0.57 -6.52,-1.42 -3.97,-1.99 -4.82,-7.65 -7.37,-9.92 a 8.39,8.39 0 0 0 -5.1,-2.27"
         inkscape:connector-curvature="0" />
      <path
         id="path4078"
         style="fill:none;stroke:#ffffff;stroke-width:0.5px;stroke-linecap:round;stroke-linejoin:round"
         d="m 412.84,202.4 c 0,0 -0.23,7.22 -5.77,8.74"
         inkscape:connector-curvature="0" />
      <path
         id="path4080"
         style="fill:#ffffff;stroke:#263238;stroke-linecap:round;stroke-linejoin:round"
         d="m 397.38,209.77 c 0,0 5.28,-6.91 6.52,-1.75 1.24,5.16 -3,6.42 -5,5.83 -2,-0.59 -1.72,-1.66 -1.72,-1.66"
         inkscape:connector-curvature="0" />
      <path
         id="path4082"
         style="fill:#ffffff;stroke:#263238;stroke-linecap:round;stroke-linejoin:round"
         d="m 385.63,268.9 c 0,0 -10.08,1.4 -11.76,1.4 -1.68,0 -5.88,5.32 -5.88,5.32 h 18.48 z"
         inkscape:connector-curvature="0" />
      <path
         id="path4084"
         style="fill:#ffffff;stroke:#263238;stroke-linecap:round;stroke-linejoin:round"
         d="m 428.45,262.12 3.62,8.16 a 3.22,3.22 0 0 1 -3,4.25 l -43.7,0.25 0.28,-5.88 33.88,-5.36"
         inkscape:connector-curvature="0" />
      <polygon
         id="polygon4086"
         style="fill:#263238;stroke:#263238;stroke-linecap:round;stroke-linejoin:round"
         points="367.25,378.81 369.96,374.84 370.17,382.77 368.92,382.77 " />
      <path
         id="path4088"
         style="fill:#ffffff;stroke:#263238;stroke-linecap:round;stroke-linejoin:round"
         d="m 367.72,369.54 -1.61,-11.54 -8.38,0.54 2.9,11.36 -3.7,7.41 -8,5.23 c 0,0 -0.92,0.92 3.08,0.61 4,-0.31 12.3,0 12.3,0 l 5.23,-6.15 c 0,0 1.89,-3.21 -1.82,-7.46 z"
         inkscape:connector-curvature="0" />
      <path
         id="path4090"
         style="fill:#263238;stroke:#263238;stroke-linecap:round;stroke-linejoin:round"
         d="m 364.31,383.11 5.23,-6.15 c 0,0 1.35,-2.29 -0.52,-5.59 -3.72,6.36 -8.67,8.27 -8.67,8.27 l -5.15,-1.24 -6.27,4.1 c 0,0 -0.92,0.92 3.08,0.61 4,-0.31 12.3,0 12.3,0 z"
         inkscape:connector-curvature="0" />
      <path
         id="path4092"
         style="fill:#92e3a9;stroke:#263238;stroke-linecap:round;stroke-linejoin:round"
         d="m 363.88,298.8 3.59,61.32 -11.37,0.27 -11.1,-55.71 c 0,0 0.21,-10.61 3.6,-11.83 3.39,-1.22 12.39,0.09 12.39,0.09"
         inkscape:connector-curvature="0" />
    </g>
    <g
       transform="matrix(0.19767888,0,0,0.19767888,-37.115514,196.64886)"
       id="g6644">
      <path
         id="path6530"
         style="fill:#ffffff"
         d="m 524.24,139.3 c 0,0 26.22,-2.54 27.72,1.83 1.5,4.37 1,14.35 1,14.35 a 23.37,23.37 0 0 1 3.85,1.37 c 0.35,0.34 4.23,2.88 0.61,7.05 a 10.75,10.75 0 0 1 -3.37,2.53 25.08,25.08 0 0 0 -4.53,2.6 l -5.26,5.97 1,7.69 c 0,0 2.35,1.7 5.22,7.63 0,0 6.78,4 10.76,6.27 a 70.05,70.05 0 0 0 10.18,4.36 c 0,0 1.82,0.59 1.69,1.9 -0.13,1.31 -9.06,31 -9.06,31 l -4.7,15 a 33.62,33.62 0 0 1 -0.72,5.48 c -0.67,3.23 -3.19,5.35 -5.8,4.69 l 0.26,11 c 0,0 -12.26,6.13 -32.48,5.09 0,0 -9.52,-0.92 -16.56,-6.13 l -0.13,-25.7 -32.44,-6.28 c 0,0 -4.11,-0.87 -2,-4.57 2.11,-3.7 9.2,-12.88 9.2,-12.88 l 22.79,-27.88 c 0,0 1.57,-1.85 2.15,-2.44 0.58,-0.59 2,-1 7.63,-1.47 5.63,-0.47 11.94,-1.56 11.94,-1.56 0,0 3.42,-2.94 3.91,-2.94 0.49,0 0.59,-4.4 0.59,-4.4 a 14.75,14.75 0 0 1 -6.07,-10.76 c -0.49,-7.14 2.64,-23.87 2.64,-23.87 z"
         inkscape:connector-curvature="0" />
      <path
         id="path6532"
         style="fill:#263238"
         d="m 504.45,268.88 c 0,0 -2.76,41 -2.76,60.62 0,19.62 1.23,35.51 1.84,49.29 0.61,13.78 -1.84,23.27 0.3,33.37 2.14,10.1 7.05,39.5 7.05,39.5 l 5.77,3.48 c 0,0 1,-23.39 3.1,-31.65 2.1,-8.26 2.76,-43.17 4,-53.89 1.24,-10.72 5.21,-48.68 5.21,-48.68 0,0 15.31,39.8 19,55.42 3.69,15.62 16.23,50.82 19,59.39 C 569.73,444.3 574,457 574,457 a 9.64,9.64 0 0 0 4,0.3 3.41,3.41 0 0 0 2.76,-1.84 c 0,0 -4.07,-25.64 -5.86,-38.1 -2.21,-15.41 -5.81,-38.57 -8,-47.14 -2.19,-8.57 -5.51,-22.05 -5.51,-28.48 0,-6.43 -8.26,-71 -8.26,-71 0,0 -28.78,12.53 -48.68,-1.86 z"
         inkscape:connector-curvature="0" />
      <line
         id="line6534"
         style="fill:none;stroke:#ffffff;stroke-width:0.53034097px;stroke-linecap:round;stroke-miterlimit:10"
         y2="306.60001"
         x2="516.65997"
         y1="320.92001"
         x1="528.94" />
      <line
         id="line6536"
         style="fill:none;stroke:#ffffff;stroke-width:0.53034097px;stroke-linecap:round;stroke-miterlimit:10"
         y2="317.06"
         x2="523.63"
         y1="307.64999"
         x1="513.52002" />
      <path
         id="path6538"
         style="fill:none;stroke:#ffffff;stroke-width:0.53034097px;stroke-linecap:round;stroke-miterlimit:10"
         d="m 535.13,308.7 a 30,30 0 0 1 13.59,-15.34"
         inkscape:connector-curvature="0" />
      <path
         id="path6540"
         style="fill:none;stroke:#ffffff;stroke-width:0.53034097px;stroke-linecap:round;stroke-miterlimit:10"
         d="m 549.41,274.2 c 0,0 -1.39,5.22 0.35,8.36 1.74,3.14 3.49,3.14 3.49,3.14 0,0 3.13,17.07 3.13,26.83 0,9.76 -2.09,10.8 0,21.6 2.09,10.8 3.49,14.29 3.49,20.56 0,6.27 2.78,10.46 5.22,14.29 2.44,3.83 3.14,15 3.14,19.51 0,4.51 1.39,9.41 2.79,13.94 0,0 0.33,10.16 2.09,12.54 1.76,2.38 2.09,10.46 2.09,10.46"
         inkscape:connector-curvature="0" />
      <path
         id="path6542"
         style="fill:none;stroke:#ffffff;stroke-width:0.53034097px;stroke-linecap:round;stroke-miterlimit:10"
         d="m 526.42,319.5 c 0,0 0.69,8 -1.75,21.95 -2.44,13.95 -4.18,17.77 -4.53,33.8 -0.35,16.03 1.05,18.82 0.35,27.18 -0.7,8.36 -4.88,21.57 -4.88,27.57 0,6 0.64,25.18 0.64,25.18"
         inkscape:connector-curvature="0" />
      <polyline
         id="polyline6544"
         style="fill:none;stroke:#ffffff;stroke-width:0.53034097px;stroke-linecap:round;stroke-miterlimit:10"
         points="518.75 276.29 519.45 279.08 523.98 280.12 523.28 276.64" />
      <path
         id="path6546"
         style="fill:none;stroke:#ffffff;stroke-width:0.53034097px;stroke-linecap:round;stroke-miterlimit:10"
         d="m 524,280.12 c 0,0 8.36,-0.35 12.54,-1.74 l -1,-2.79"
         inkscape:connector-curvature="0" />
      <path
         id="path6548"
         style="fill:none;stroke:#ffffff;stroke-width:0.53034097px;stroke-linecap:round;stroke-miterlimit:10"
         d="m 539.31,274.89 1,3.49 c 0,0 6.69,-0.38 7.69,-1.38"
         inkscape:connector-curvature="0" />
      <path
         id="path6550"
         style="fill:none;stroke:#ffffff;stroke-width:0.53034097px;stroke-linecap:round;stroke-miterlimit:10"
         d="m 519.45,279.08 a 15.21,15.21 0 0 1 -6.62,-1.75 l -3.14,-1.74 1,-2.44"
         inkscape:connector-curvature="0" />
      <path
         id="path6552"
         style="fill:#ffffff;stroke:#263238;stroke-width:1.06068194px;stroke-linecap:round;stroke-miterlimit:10"
         d="m 510.88,451.66 c 0,0 -15,9.79 -17.15,14.38 -2.15,4.59 6.43,2.76 12.55,0.31 6.12,-2.45 10,-11.21 10,-11.21 z"
         inkscape:connector-curvature="0" />
      <path
         id="path6554"
         style="fill:#ffffff;stroke:#263238;stroke-width:1.06068194px;stroke-linecap:round;stroke-miterlimit:10"
         d="m 574.48,457.13 a 36.29,36.29 0 0 0 4.4,11.9 c 3.3,5.13 9.53,9.53 9.53,1.46 0,-8.07 -7.69,-15 -7.69,-15 0,0 -3.82,2.07 -6.24,1.64 z"
         inkscape:connector-curvature="0" />
      <path
         id="path6556"
         style="fill:#ffffff"
         d="m 524.15,144.84 c 0,0 -3.25,20.16 -2.15,25.16 2.51,11.19 11.32,10.71 16.83,8.57 5.15,-2 10.29,-9.07 10.95,-10 a 0.38,0.38 0 0 1 0.19,-0.14 c 0.82,-0.23 5.91,-1.85 8.15,-5.78 2.45,-4.29 -2.14,-6.12 -2.14,-6.12"
         inkscape:connector-curvature="0" />
      <g
         id="g6560"
         clip-path="url(#freepik--clip-path--inject-90)">
        <path
           id="path6558"
           style="opacity:0.5;mix-blend-mode:multiply;fill:#92e3a9"
           d="m 545,173.76 4.86,-5.34 c 0,0 5.75,-1.77 8.26,-5.82 1.47,-2.37 0.66,-4.44 -0.23,-5 a 33.76,33.76 0 0 0 -3.77,-1.75 l -1.63,3.59 -1.39,0.24 c 0,0 0.58,-3.7 -1.1,-5.89 -1.68,-2.19 -2.06,-8.53 -2.06,-8.53 0,0 -2.35,12.64 -2.64,17.93 a 15.35,15.35 0 0 1 -2.65,8.24 c 0,0 0.3,3.23 0.88,6.46 0.07,0.38 0.14,0.95 0.21,1.66 l 0.8,-1.28 0.44,1.22 c -0.5,-2.1 -0.73,-4.33 0.02,-5.73 z"
           inkscape:connector-curvature="0" />
      </g>
      <path
         id="path6562"
         style="fill:none;stroke:#263238;stroke-width:1.06068194px;stroke-linecap:round;stroke-miterlimit:10"
         d="m 524.15,144.84 c 0,0 -3.25,20.16 -2.15,25.16 2.51,11.19 11.32,10.71 16.83,8.57 5.15,-2 10.29,-9.07 10.95,-10 a 0.38,0.38 0 0 1 0.19,-0.14 c 0.82,-0.23 5.91,-1.85 8.15,-5.78 2.45,-4.29 -2.14,-6.12 -2.14,-6.12"
         inkscape:connector-curvature="0" />
      <path
         id="path6564"
         style="fill:#263238"
         d="m 536.59,155.09 c -0.19,0.8 0,1.52 0.37,1.61 0.37,0.09 0.87,-0.47 1.06,-1.26 0.19,-0.79 0,-1.51 -0.37,-1.61 -0.37,-0.1 -0.87,0.47 -1.06,1.26 z"
         inkscape:connector-curvature="0" />
      <path
         id="path6566"
         style="fill:#263238"
         d="m 528,153 c -0.19,0.8 0,1.52 0.37,1.61 0.37,0.09 0.87,-0.47 1.06,-1.26 0.19,-0.79 0,-1.52 -0.37,-1.61 -0.37,-0.09 -0.88,0.46 -1.06,1.26 z"
         inkscape:connector-curvature="0" />
      <path
         id="path6568"
         style="fill:none;stroke:#263238;stroke-width:1.06068194px;stroke-linecap:round;stroke-miterlimit:10"
         d="m 541.92,151.59 a 5.73,5.73 0 0 0 -4.65,-2.89"
         inkscape:connector-curvature="0" />
      <path
         id="path6570"
         style="fill:none;stroke:#263238;stroke-width:1.06068194px;stroke-linecap:round;stroke-miterlimit:10"
         d="m 530.69,148.85 a 4.23,4.23 0 0 0 -4.72,0.92"
         inkscape:connector-curvature="0" />
      <path
         id="path6572"
         style="fill:none;stroke:#263238;stroke-width:1.06068194px;stroke-linecap:round;stroke-miterlimit:10"
         d="m 531.27,152.49 a 22.59,22.59 0 0 1 -0.3,4 c -0.33,1.67 -1.63,2 -1.3,3.29 0.33,1.29 2,1.42 2,1.42"
         inkscape:connector-curvature="0" />
      <path
         id="path6574"
         style="fill:none;stroke:#263238;stroke-width:1.06068194px;stroke-linecap:round;stroke-miterlimit:10"
         d="m 533.41,166.41 a 5.14,5.14 0 0 0 4.27,-0.53"
         inkscape:connector-curvature="0" />
      <path
         id="path6576"
         style="fill:#263238"
         d="m 549.25,130.76 c 0,0 -6.73,-5.82 -13.16,-5.82 -6.43,0 -11.64,3.68 -15.62,4 -3.98,0.32 -6.73,-3.37 -9.18,1.53 -2.45,4.9 6.74,13.17 12.86,14.39 6.12,1.22 14.69,-0.61 17.14,-0.92 a 51.54,51.54 0 0 1 7.05,0 c 0,0 -1.84,5.82 0,7.66 1.84,1.84 2.14,3.06 2.14,4.28 a 27.55,27.55 0 0 0 0.61,4 l 1.84,0.62 0.92,-3.37 a 19.55,19.55 0 0 0 4.9,-9.49 c 0.91,-5.51 -3.68,-11 -3.68,-11 z"
         inkscape:connector-curvature="0" />
      <path
         id="path6578"
         style="fill:none;stroke:#ffffff;stroke-width:0.53034097px;stroke-linecap:round;stroke-miterlimit:10"
         d="m 523.47,142.35 c 0,0 10.47,2 18.67,-1.41 8.2,-3.41 1.13,-10.18 1.13,-10.18"
         inkscape:connector-curvature="0" />
      <path
         id="path6580"
         style="fill:none;stroke:#ffffff;stroke-width:0.53034097px;stroke-linecap:round;stroke-miterlimit:10"
         d="m 545,130.19 c 0.85,0 7.92,5.37 6.5,9.33 -1.42,3.96 -4.24,4.25 -4.24,4.25"
         inkscape:connector-curvature="0" />
      <path
         id="path6582"
         style="fill:#92e3a9"
         d="M 543.84,251.66 535,247 a 46,46 0 0 1 -6.76,-0.88 c -2.06,-0.59 -23.2,-2.61 -23.2,-2.61 l -0.32,5 c 0,0 24.11,3.24 29.1,3.83 4.99,0.59 9.41,2.94 10.29,4.41 0.88,1.47 2.65,2.94 1.77,7 -0.88,4.06 -6.76,10 -6.76,10 -0.28,-0.42 14.14,-1.46 14,-3 -0.31,-3.06 -1.94,-12 -1.94,-12 z"
         inkscape:connector-curvature="0" />
      <path
         id="path6584"
         style="opacity:0.5;fill:#ffffff"
         d="M 543.84,251.66 535,247 a 46,46 0 0 1 -6.76,-0.88 c -2.06,-0.59 -23.2,-2.61 -23.2,-2.61 l -0.32,5 c 0,0 24.11,3.24 29.1,3.83 4.99,0.59 9.41,2.94 10.29,4.41 0.88,1.47 2.65,2.94 1.77,7 -0.88,4.06 -6.76,10 -6.76,10 -0.23,-0.45 14.17,-1.47 14,-3 -0.47,-3.9 -1.94,-12 -1.94,-12 z"
         inkscape:connector-curvature="0" />
      <path
         id="path6586"
         style="fill:#92e3a9"
         d="m 573,202.74 c -0.78,-3.66 -6.6,-3.17 -10.11,-5.2 -3.51,-2.03 -12,-6.73 -12,-6.73 l -4.11,-6.18 a 32.18,32.18 0 0 1 -1.79,-5.16 l -0.44,-1.22 -0.8,1.28 c 0.51,5.48 1,19.51 1,19.51 l 1.76,8.82 c 0,0 6.77,29.1 8.53,35.57 1.76,6.47 1.76,10.87 0.59,12.93 -1.17,2.06 -0.78,3 -0.78,3 0,0 4.59,-3.55 4.31,-7.07 -0.37,-4.14 14.39,-47.07 13.84,-49.55 z"
         inkscape:connector-curvature="0" />
      <path
         id="path6588"
         style="opacity:0.5;fill:#ffffff"
         d="m 573,202.74 c -0.4,-3.72 -6.6,-3.17 -10.11,-5.2 -3.51,-2.03 -12,-6.73 -12,-6.73 l -4.11,-6.18 a 32.18,32.18 0 0 1 -1.79,-5.16 l -0.44,-1.22 -0.8,1.28 c 0.51,5.48 1,19.51 1,19.51 l 1.76,8.82 c 0,0 6.77,29.1 8.53,35.57 1.76,6.47 1.76,10.87 0.59,12.93 -1.17,2.06 -0.78,3 -0.78,3 0,0 4.72,-3.56 4.31,-7.07 -0.47,-3.77 14.2,-46.46 13.84,-49.55 z"
         inkscape:connector-curvature="0" />
      <path
         id="path6590"
         style="fill:#ffffff;stroke:#263238;stroke-width:1.06068194px;stroke-linecap:round;stroke-miterlimit:10"
         d="m 547.31,199.07 c 0,0 -1.84,-16.53 -2.76,-20.82 -0.92,-4.29 -0.3,-6.73 -4.28,-6.73 -3.98,0 -8.88,-0.62 -8,1.53 0.88,2.15 7,0.3 8,1.22 1,0.92 0.3,3.06 0.3,3.06 0,0 -8,0.62 -8,2.76 0,2.14 0.31,8 1.84,8.57 1.53,0.57 2.14,-2.75 2.14,-2.75 0,0 0.31,7 1.84,9.49 a 26.7,26.7 0 0 0 3.37,4.28 z"
         inkscape:connector-curvature="0" />
      <path
         id="path6592"
         style="fill:none;stroke:#263238;stroke-width:1.06068194px;stroke-linecap:round;stroke-miterlimit:10"
         d="m 541.8,203.66 c 0,0 -0.92,38 0.61,44.09 1.53,6.09 9.8,14.39 14.08,10.41 4.28,-3.98 2.15,-12.55 2.15,-16.53 0,-3.98 -9.8,-33.37 -9.8,-35.52 a 17.78,17.78 0 0 0 -1.23,-5.2"
         inkscape:connector-curvature="0" />
      <line
         id="line6594"
         style="fill:none;stroke:#263238;stroke-width:1.06068194px;stroke-linecap:round;stroke-miterlimit:10"
         y2="207.64"
         x2="548.53003"
         y1="208.25999"
         x1="542.40997" />
      <path
         id="path6596"
         style="fill:#92e3a9"
         d="m 503.27,227.26 1.18,-33.81 c 0,0 -1.47,-0.88 -2.06,2.35 -0.59,3.23 -0.88,9.71 -0.88,9.71 0,0 -7.06,-4.41 -5.29,-1.77 1.77,2.64 4.7,8.53 4.7,8.53 l -10.92,10.87 5,2.06 z"
         inkscape:connector-curvature="0" />
      <path
         id="path6598"
         style="opacity:0.5;fill:#ffffff"
         d="m 503.27,227.26 1.18,-33.81 c 0,0 -1.47,-0.88 -2.06,2.35 -0.59,3.23 -0.88,9.71 -0.88,9.71 0,0 -7.06,-4.41 -5.29,-1.77 1.77,2.64 4.7,8.53 4.7,8.53 l -10.92,10.87 5,2.06 z"
         inkscape:connector-curvature="0" />
      <path
         id="path6600"
         style="fill:#92e3a9"
         d="m 517.91,201 c 0,0 -0.56,2 1.79,2 2.35,0 6.48,-1.67 6.48,-1.67 l -0.3,-3.32 c 0,0 -5.65,2.75 -7.97,2.99 z"
         inkscape:connector-curvature="0" />
      <path
         id="path6602"
         style="opacity:0.5;fill:#ffffff"
         d="m 517.91,201 c 0,0 -0.56,2 1.79,2 2.35,0 6.48,-1.67 6.48,-1.67 l -0.3,-3.32 c 0,0 -5.65,2.75 -7.97,2.99 z"
         inkscape:connector-curvature="0" />
      <path
         id="path6604"
         style="fill:none;stroke:#263238;stroke-width:1.06068194px;stroke-linecap:round;stroke-miterlimit:10"
         d="m 528,178.64 c 0,0 -3.06,18 -1.22,22 1.84,4 4.59,3.06 6.73,1.23 2.14,-1.83 4.9,-6.43 4.9,-6.43"
         inkscape:connector-curvature="0" />
      <path
         id="path6606"
         style="fill:none;stroke:#263238;stroke-width:1.06068194px;stroke-linecap:round;stroke-miterlimit:10"
         d="m 503.83,243.77 0.62,25.11 c 0,0 7,6.73 20.51,6.73 13.51,0 28.17,-4.9 28.17,-4.9 v -8.88"
         inkscape:connector-curvature="0" />
      <path
         id="path6608"
         style="fill:none;stroke:#263238;stroke-width:1.06068194px;stroke-linecap:round;stroke-miterlimit:10"
         d="m 545.17,182.23 c 0,0 5.51,5.51 5.51,10.72 0,5.21 -0.92,6.43 -0.92,6.43"
         inkscape:connector-curvature="0" />
      <path
         id="path6610"
         style="fill:none;stroke:#263238;stroke-width:1.06068194px;stroke-linecap:round;stroke-miterlimit:10"
         d="m 550.06,189.89 c 0,0 8.27,4.89 12.86,7.65 4.59,2.76 10.11,2.75 10.11,5.2 0,2.45 -12.86,44.09 -12.86,44.09"
         inkscape:connector-curvature="0" />
      <line
         id="line6612"
         style="fill:none;stroke:#263238;stroke-width:1.06068194px;stroke-linecap:round;stroke-miterlimit:10"
         y2="215.91"
         x2="552.21002"
         y1="203.66"
         x1="555.27002" />
      <line
         id="line6614"
         style="fill:none;stroke:#263238;stroke-width:0.53034097px;stroke-linecap:round;stroke-miterlimit:10"
         y2="200.47"
         x2="498.95999"
         y1="210.85001"
         x1="503.91" />
      <line
         id="line6616"
         style="fill:none;stroke:#263238;stroke-width:0.53034097px;stroke-linecap:round;stroke-miterlimit:10"
         y2="209.37"
         x2="496.48999"
         y1="213.82001"
         x1="503.91" />
      <line
         id="line6618"
         style="fill:none;stroke:#263238;stroke-width:0.53034097px;stroke-linecap:round;stroke-miterlimit:10"
         y2="244.46001"
         x2="526.64001"
         y1="237.03999"
         x1="528.12" />
      <path
         id="path6620"
         style="fill:none;stroke:#263238;stroke-width:0.53034097px;stroke-linecap:round;stroke-miterlimit:10"
         d="m 568.15,202.45 c 0,0 -7.41,1.48 -14.33,9.88"
         inkscape:connector-curvature="0" />
      <path
         id="path6622"
         style="fill:none;stroke:#263238;stroke-width:0.53034097px;stroke-linecap:round;stroke-miterlimit:10"
         d="m 563.21,202 c 0,0 -2,-0.5 -8.89,5.43"
         inkscape:connector-curvature="0" />
      <polyline
         id="polyline6624"
         style="fill:none;stroke:#263238;stroke-width:0.53034097px;stroke-linecap:round;stroke-miterlimit:10"
         points="528.12 204.43 525.16 227.65 527.63 228.15 529.61 220.74" />
      <path
         id="path6626"
         style="fill:none;stroke:#263238;stroke-width:0.53034097px;stroke-linecap:round;stroke-miterlimit:10"
         d="m 530.1,265.21 c -8.9,7.42 -21.25,6.92 -21.25,6.92"
         inkscape:connector-curvature="0" />
      <path
         id="path6628"
         style="fill:none;stroke:#263238;stroke-width:0.53034097px;stroke-linecap:round;stroke-miterlimit:10"
         d="m 492.49,224.88 c 0,0 -6.05,-5.54 -14.62,1.51"
         inkscape:connector-curvature="0" />
      <path
         id="path6630"
         style="fill:none;stroke:#263238;stroke-width:1.06068194px;stroke-linecap:round;stroke-miterlimit:10"
         d="m 527.41,183.15 c 0,0 -2.45,0.61 -5.21,4.9 -2.76,4.29 -6.12,11.63 -3.67,12.24 2.45,0.61 7,-2.14 7,-2.14"
         inkscape:connector-curvature="0" />
      <line
         id="line6632"
         style="fill:none;stroke:#263238;stroke-width:1.06068194px;stroke-linecap:round;stroke-miterlimit:10"
         y2="202.13"
         x2="539.96002"
         y1="199.38"
         x1="536.90002" />
      <path
         id="path6634"
         style="fill:none;stroke:#263238;stroke-width:1.06068194px;stroke-linecap:round;stroke-miterlimit:10"
         d="m 523.12,186.21 c 0,0 -11.33,1.53 -15.92,1.84 -4.59,0.31 -3.7,2 -5.2,3.06 -2.42,1.69 -30.18,36.88 -32,40.25 -1.82,3.37 -1.53,4.9 1.53,5.82 3.06,0.92 33.54,6.28 33.54,6.28 l 26.93,2.76 2.14,-6.74 c 0,0 6.26,0.83 7.36,0.83"
         inkscape:connector-curvature="0" />
      <path
         id="path6636"
         style="fill:none;stroke:#263238;stroke-width:1.06068194px;stroke-linecap:round;stroke-miterlimit:10"
         d="m 531.08,237 a 88,88 0 0 1 -17.14,-7"
         inkscape:connector-curvature="0" />
      <path
         id="path6638"
         style="fill:none;stroke:#263238;stroke-width:1.06068194px;stroke-linecap:round;stroke-miterlimit:10"
         d="m 511.49,229.38 c 0,0 -9,-3.34 -13.87,-3.95 -4.87,-0.61 -12.33,-0.81 -12.33,-0.81"
         inkscape:connector-curvature="0" />
      <line
         id="line6640"
         style="fill:none;stroke:#263238;stroke-width:1.06068194px;stroke-linecap:round;stroke-miterlimit:10"
         y2="201.21001"
         x2="504.14001"
         y1="225.39999"
         x1="503.22" />
      <path
         id="path6642"
         style="fill:none;stroke:#263238;stroke-width:1.06068194px;stroke-linecap:round;stroke-miterlimit:10"
         d="m 532,246.22 a 35.37,35.37 0 0 0 6.57,2.52"
         inkscape:connector-curvature="0" />
    </g>
    <path
       id="path12988"
       style="fill:#92e3a9;stroke:#263238;stroke-width:0.20490798;stroke-linecap:round;stroke-linejoin:round"
       d="m 142.61907,256.95782 c 0,0 0.49382,-0.20491 0.77455,-0.0348 0.28072,0.17007 0.35244,2.14538 0,2.74371 a 1.182319,1.182319 0 0 1 -0.84422,0.63317 l -0.0697,-0.95077 c 0,0 0.31555,0.17622 0.49178,-0.49178 0.17622,-0.668 0.14138,-1.22945 0.0348,-1.26633 a 0.76020861,0.76020861 0 0 0 -0.3504,0.0697 z"
       inkscape:connector-curvature="0" />
    <rect
       id="rect12990"
       style="fill:#92e3a9;stroke:#263238;stroke-width:0.20490798;stroke-linecap:round;stroke-linejoin:round"
       height="5.0100002"
       width="3.9711165"
       y="255.99883"
       x="138.72588" />
    <g
       transform="matrix(0.17280506,0,0,0.17280506,-2.4858631,212.32717)"
       id="g13733">
      <line
         id="line13677"
         style="fill:none;stroke:#263238;stroke-width:6px;stroke-linecap:round;stroke-linejoin:round"
         y2="441"
         x2="614.38"
         y1="345"
         x1="609.88" />
      <line
         id="line13679"
         style="fill:none;stroke:#263238;stroke-width:6px;stroke-linecap:round;stroke-linejoin:round"
         y2="441"
         x2="594.69"
         y1="345"
         x1="589.69" />
      <line
         id="line13681"
         style="fill:none;stroke:#263238;stroke-width:6px;stroke-linecap:round;stroke-linejoin:round"
         y2="441"
         x2="518.83002"
         y1="345"
         x1="525.33002" />
      <line
         id="line13683"
         style="fill:none;stroke:#263238;stroke-width:6px;stroke-linecap:round;stroke-linejoin:round"
         y2="441"
         x2="495.12"
         y1="345"
         x1="510.62" />
      <polygon
         id="polygon13685"
         style="fill:#808080;stroke:#263238;stroke-linecap:round;stroke-linejoin:round"
         points="524.56,240.29 612.86,240.29 613.19,341.63 521.28,341.63 " />
      <rect
         id="rect13687"
         style="fill:#808080;stroke:#263238;stroke-linecap:round;stroke-linejoin:round"
         transform="rotate(180,558.405,344.225)"
         height="5.77"
         width="109.56"
         y="341.34"
         x="503.62" />
      <rect
         id="rect13689"
         style="fill:#808080;stroke:#263238;stroke-linecap:round;stroke-linejoin:round"
         transform="rotate(180,550.025,344.225)"
         height="5.77"
         width="92.800003"
         y="341.34"
         x="503.62" />
      <path
         id="path13691"
         style="fill:#263238;stroke:#263238;stroke-linecap:round;stroke-linejoin:round"
         d="m 526.86,289 c 0,0 -8.51,13 -9.85,22.82 -1.34,9.82 0.9,21 7.16,25.06 a 31.48,31.48 0 0 0 13.43,4.48 h 53.25 c 0,0 9.4,-2.24 13.43,-11.19 4.03,-8.95 1.34,-20.59 -1.34,-26.41 C 600.26,297.94 598,293 598,293 Z"
         inkscape:connector-curvature="0" />
      <path
         id="path13693"
         style="fill:#92e3a9;stroke:#263238;stroke-linecap:round;stroke-linejoin:round"
         d="m 551.92,186 c 0,0 -31.33,11.64 -33.12,14.77 -1.79,3.13 13.88,64.89 13.88,64.89 l -8.06,25.51 a 354.88,354.88 0 0 0 37.15,5.83 c 18.79,1.79 37.14,-3.58 37.14,-3.58 l -7.16,-30 11.64,-62.65 c 0,0 -23,-10.91 -28.06,-12.84 C 570.27,186 555.5,185.59 551.92,186 Z"
         inkscape:connector-curvature="0" />
      <path
         id="path13695"
         style="fill:#92e3a9;stroke:#263238;stroke-linecap:round;stroke-linejoin:round"
         d="m 585.05,192.25 c -4.24,-1.94 -8,-3.63 -9.72,-4.28 -5.06,-1.93 -19.83,-2.38 -23.41,-1.93 0,0 -7.68,2.85 -15.65,6.11 l 17.89,74.45 15.66,2.23 z"
         inkscape:connector-curvature="0" />
      <path
         id="path13697"
         style="fill:#ffffff;stroke:#263238;stroke-linecap:round;stroke-linejoin:round"
         d="m 568.64,297.39 5.49,-109.8 c -5.88,-1.61 -18.88,-2 -22.21,-1.55 l -2.56,1 5.86,109.31 c 2.16,0.26 4.35,0.5 6.55,0.71 2.2,0.21 4.61,0.3 6.87,0.33 z"
         inkscape:connector-curvature="0" />
      <path
         id="path13699"
         style="fill:#92e3a9;stroke:#263238;stroke-linecap:round;stroke-linejoin:round"
         d="m 518.8,200.81 c 0,0 -28.64,78.77 -23.72,81.45 4.92,2.68 62.21,3.58 62.21,3.58 v -6.26 l -38,-13.88 7.61,-24.61 z"
         inkscape:connector-curvature="0" />
      <path
         id="path13701"
         style="fill:#ffffff;stroke:#263238;stroke-linecap:round;stroke-linejoin:round"
         d="m 557.29,279.58 c 0,0 15.22,-1.79 16.56,-1.79 1.34,0 13.42,8.5 13.42,8.5 l -30,-0.45 z"
         inkscape:connector-curvature="0" />
      <path
         id="path13703"
         style="fill:#92e3a9;stroke:#263238;stroke-linecap:round;stroke-linejoin:round"
         d="m 603.26,200.81 c 0,0 28.65,78.77 23.72,81.45 -4.93,2.68 -62.2,3.58 -62.2,3.58 v -6.26 l 38,-13.88 -7.22,-23.29 z"
         inkscape:connector-curvature="0" />
      <path
         id="path13705"
         style="fill:none;stroke:#263238;stroke-linecap:round;stroke-linejoin:round"
         d="m 615.64,264 a 17.16,17.16 0 0 1 2.79,0.24"
         inkscape:connector-curvature="0" />
      <path
         id="path13707"
         style="fill:none;stroke:#263238;stroke-linecap:round;stroke-linejoin:round"
         d="m 602.82,265.7 a 67.18,67.18 0 0 1 11,-1.69"
         inkscape:connector-curvature="0" />
      <path
         id="path13709"
         style="fill:#ffffff;stroke:#263238;stroke-linecap:round;stroke-linejoin:round"
         d="m 564.78,279.58 c 0,0 -15.22,-1.79 -16.56,-1.79 -1.34,0 -13.43,8.5 -13.43,8.5 l 30,-0.45 z"
         inkscape:connector-curvature="0" />
      <path
         id="path13711"
         style="fill:#263238;stroke:#263238;stroke-linecap:round;stroke-linejoin:round"
         d="m 604.83,308.52 c -3.58,-14.68 -17.47,-17.42 -29.75,-18.43 -12.28,-1.01 -20.47,2.63 -20.47,2.63 0,0 20,1 22.53,14.68 L 569,327.13 c 0,0 -1.54,4.56 6.14,11.64"
         inkscape:connector-curvature="0" />
      <path
         id="path13713"
         style="fill:#ffffff;stroke:#263238;stroke-linecap:round;stroke-linejoin:round"
         d="m 572.23,314.57 a 253.52,253.52 0 0 0 4.12,28.54 c 3.21,15.85 17.41,73.37 18.33,75.64 0.92,2.27 11.45,17.21 9.62,22.64 -1.83,5.43 -4.12,5 -8.25,0.91 -4.13,-4.09 -8.24,-21.29 -8.7,-23.1 -0.46,-1.81 -24.28,-42.58 -31.61,-61.15 -7.33,-18.57 -11.92,-29 -9.62,-42.57 2.3,-13.57 10.53,-14 17,-12.23 6.47,1.77 9.11,11.32 9.11,11.32 z"
         inkscape:connector-curvature="0" />
      <polygon
         id="polygon13715"
         style="fill:#263238;stroke:#263238;stroke-miterlimit:10"
         points="551.42,346.55 571.87,319.4 555.74,358.05 " />
      <path
         id="path13717"
         style="fill:#263238;stroke:#263238;stroke-linecap:round;stroke-linejoin:round"
         d="m 604.3,441.39 c 1,-2.93 -1.63,-8.64 -4.39,-13.62 -3.33,5 -6.84,4.49 -9.3,3 1.56,4.77 3.5,9.61 5.44,11.53 4.13,4.08 6.42,4.53 8.25,-0.91 z"
         inkscape:connector-curvature="0" />
      <path
         id="path13719"
         style="fill:#ffffff;stroke:#263238;stroke-linecap:round;stroke-linejoin:round"
         d="m 575.64,302 c 0,0 -7.64,-13.47 -19.64,-9.45 -12,4.02 -37.6,91.75 -45.65,104.28 a 114,114 0 0 1 -6.71,9.4 49.12,49.12 0 0 1 -13,1.79 c -7.16,0 -13.43,0 -8.06,4.47 5.37,4.47 16.56,7.61 22.38,8.5 5.82,0.89 8.95,-10.29 8.95,-10.29 0,0 34.46,-58.62 40.72,-64.89 6.26,-6.27 17.91,-26.4 20.14,-30.43 2.23,-4.03 1.76,-9.38 0.87,-13.38 z"
         inkscape:connector-curvature="0" />
      <path
         id="path13721"
         style="fill:#263238;stroke:#263238;stroke-linecap:round;stroke-linejoin:round"
         d="m 513.37,412.23 c -6.39,0.68 -16.5,1.6 -16.5,1.6 l -3.54,-5.9 c -0.88,0.05 -1.79,0.09 -2.72,0.09 -7.16,0 -13.43,0 -8.06,4.47 5.37,4.47 16.56,7.61 22.38,8.5 4.46,0.69 7.34,-5.73 8.44,-8.76 z"
         inkscape:connector-curvature="0" />
      <path
         id="path13723"
         style="fill:#ffffff;stroke:#263238;stroke-linecap:round;stroke-linejoin:round"
         d="m 542.79,151.36 c 0,0 -4.52,3.62 -3.62,7.69 0.9,4.07 -1.35,10.39 -4.52,11.3 -3.17,0.91 0,5 2.26,5.42 l 2.26,0.45 c 0,0 2.26,11.3 4.07,12.66 1.81,1.36 8.59,0 8.59,0 0,0 2.26,14.91 5.42,19.43 3.16,4.52 5,5.42 9,-0.45 4,-5.87 9,-19.89 9,-19.89 0,0 1.36,-14.91 -2.26,-25.31 -3.62,-10.4 -17.09,-23.95 -30.2,-11.3 z"
         inkscape:connector-curvature="0" />
      <path
         id="path13725"
         style="fill:#263238"
         d="m 543.49,166.6 c 0,1.16 -0.41,2.1 -0.92,2.1 -0.51,0 -0.92,-0.94 -0.92,-2.1 0,-1.16 0.42,-2.1 0.92,-2.1 0.5,0 0.92,0.94 0.92,2.1 z"
         inkscape:connector-curvature="0" />
      <path
         id="path13727"
         style="fill:none;stroke:#263238;stroke-linecap:round;stroke-linejoin:round"
         d="m 541.13,161.61 c 0,0 2.1,-2.36 3.94,0.79"
         inkscape:connector-curvature="0" />
      <path
         id="path13729"
         style="fill:none;stroke:#263238;stroke-linecap:round;stroke-linejoin:round"
         d="m 542.18,179 c 0,0 1.31,0.52 4.46,-1.84"
         inkscape:connector-curvature="0" />
      <path
         id="path13731"
         style="fill:#263238;stroke:#263238;stroke-linecap:round;stroke-linejoin:round"
         d="m 546.63,136.27 c 0,0 -9.49,3.92 -7.23,12.27 2.26,8.35 15.37,15.21 19.43,22.08 4.06,6.87 3.17,14.24 0,17.18 -3.17,2.94 -5.42,3.44 -5.42,3.44 a 46.73,46.73 0 0 0 22.6,5.89 c 13.11,0 18.46,-13.53 17.55,-22.36 -0.91,-8.83 -3.27,-29.58 -12.76,-36 -9.49,-6.42 -25.13,-6.92 -34.17,-2.5 z"
         inkscape:connector-curvature="0" />
    </g>
    <g
       transform="matrix(-0.17118831,0,0,0.17118831,252.23276,212.67081)"
       id="g13881">
      <line
         id="line13821"
         style="fill:none;stroke:#263238;stroke-width:6px;stroke-linecap:round;stroke-linejoin:round"
         y2="441"
         x2="176.78"
         y1="345"
         x1="192.28" />
      <line
         id="line13823"
         style="fill:none;stroke:#263238;stroke-width:6px;stroke-linecap:round;stroke-linejoin:round"
         y2="441"
         x2="228.78"
         y1="345"
         x1="244.28" />
      <line
         id="line13825"
         style="fill:none;stroke:#263238;stroke-width:6px;stroke-linecap:round;stroke-linejoin:round"
         y2="441"
         x2="281.28"
         y1="345"
         x1="265.78" />
      <line
         id="line13827"
         style="fill:none;stroke:#263238;stroke-width:6px;stroke-linecap:round;stroke-linejoin:round"
         y2="441"
         x2="335.28"
         y1="345"
         x1="319.78" />
      <polygon
         id="polygon13829"
         style="fill:#808080;stroke:#263238;stroke-linecap:round;stroke-linejoin:round"
         points="261.83,341.63 235.9,240.29 166.64,240.29 188.96,341.63 " />
      <rect
         id="rect13831"
         style="fill:#808080;stroke:#263238;stroke-linecap:round;stroke-linejoin:round"
         height="5.77"
         width="137.81"
         y="341.34"
         x="188.96001" />
      <rect
         id="rect13833"
         style="fill:#808080;stroke:#263238;stroke-linecap:round;stroke-linejoin:round"
         height="5.77"
         width="46.639999"
         y="341.34"
         x="280.13" />
      <path
         id="path13835"
         style="fill:#ffffff;stroke:#263238;stroke-linecap:round;stroke-linejoin:round"
         d="m 208.61,195 -27.67,15 14.67,90 c 0,0 -0.67,2.33 1,3.33 1.67,1 6.33,1.34 6.33,1.34 h 54.34 a 10.74,10.74 0 0 0 5,-3.34 c 1.66,-2.33 1.66,-3.66 1.66,-6 0,-2.34 5.67,-86.66 4.67,-88.33 a 20.39,20.39 0 0 0 -2.67,-3.33 l -28.66,-11.34 z"
         inkscape:connector-curvature="0" />
      <polygon
         id="polygon13837"
         style="fill:#263238;stroke:#263238;stroke-linecap:round;stroke-linejoin:round"
         points="243.65,209.32 231.14,202.22 228.34,215.32 234.86,219.8 233.04,282.92 245.21,295.77 255.01,280.9 239.25,218.78 " />
      <path
         id="path13839"
         style="fill:#ffffff;stroke:#263238;stroke-linecap:round;stroke-linejoin:round"
         d="m 248.94,142.33 4,12 -1.66,4.67 5.33,9 -3.67,2.33 c 0,0 2,12.34 1.34,13.34 -0.66,1 -14.67,2 -14.67,2 l -2,20 -22.33,-13 V 173 c 0,0 -7.34,-27.67 -5.67,-30 1.67,-2.33 13,-7 26.67,-8.67 13.67,-1.67 15.66,-3 16.33,1 0.67,4 -3.67,7 -3.67,7 z"
         inkscape:connector-curvature="0" />
      <path
         id="path13841"
         style="fill:#263238;stroke:#263238;stroke-linecap:round;stroke-linejoin:round"
         d="m 252.61,135.33 c -0.67,-4 -2.67,-2.66 -16.33,-1 -13.66,1.66 -25,6.34 -26.67,8.67 -1.67,2.33 5.67,30 5.67,30 v 5.34 a 8.45,8.45 0 0 0 2.66,0 c 3.67,-0.66 8.67,-5.66 8.67,-5.66 0,0 -5,3 -7,0 a 13.42,13.42 0 0 1 -2,-10 c 0.67,-3.34 5.67,-2.34 5.67,-0.67 0,1.67 2,5 3.66,4.33 1.66,-0.67 2,-8.33 2,-8.33 0,0 7,-4.67 7.34,-7 0.34,-2.33 -2,-6 -2,-6 l 14.66,-2.67 c 0,0 4.34,-3.01 3.67,-7.01 z"
         inkscape:connector-curvature="0" />
      <path
         id="path13843"
         style="fill:none;stroke:#263238;stroke-linecap:round;stroke-linejoin:round"
         d="m 249.28,155.67 c 0,0 -4,-1.34 -6.34,1.66"
         inkscape:connector-curvature="0" />
      <path
         id="path13845"
         style="fill:#263238"
         d="m 249.61,160.17 c 0,1.19 -0.45,2.16 -1,2.16 -0.55,0 -1,-1 -1,-2.16 0,-1.16 0.45,-2.17 1,-2.17 0.55,0 1,1 1,2.17 z"
         inkscape:connector-curvature="0" />
      <path
         id="path13847"
         style="fill:none;stroke:#263238;stroke-linecap:round;stroke-linejoin:round"
         d="m 251.61,173.67 c 0,0 -4.33,1 -6,-0.67"
         inkscape:connector-curvature="0" />
      <polygon
         id="polygon13849"
         style="fill:#263238;stroke:#263238;stroke-linecap:round;stroke-linejoin:round"
         points="231.94,185.67 238.28,196 239.61,185.67 " />
      <polygon
         id="polygon13851"
         style="fill:#ffffff;stroke:#263238;stroke-linecap:round;stroke-linejoin:round"
         points="227.28,219 237.61,205.67 215.28,189 206.94,195.67 " />
      <polygon
         id="polygon13853"
         style="fill:#ffffff;stroke:#263238;stroke-linecap:round;stroke-linejoin:round"
         points="242.94,194.67 239.28,190.33 237.61,205.67 245.28,215.67 " />
      <polygon
         id="polygon13855"
         style="fill:#ffffff;stroke:#263238;stroke-linecap:round;stroke-linejoin:round"
         points="277.61,280 265.94,259.33 268.61,207 295.94,272.67 " />
      <path
         id="path13857"
         style="fill:#ffffff;stroke:#263238;stroke-linecap:round;stroke-linejoin:round"
         d="m 248.28,272.33 c 0,0 24,-3.66 31,-5 7,-1.34 12.66,-0.33 16,3.34 3.34,3.67 2.66,10.66 1.66,12.33 -1,1.67 -10,2.33 -16,2.33 -6,0 -24.33,-4.66 -28,-5.66 l -3.66,-1 z"
         inkscape:connector-curvature="0" />
      <path
         id="path13859"
         style="fill:#ffffff;stroke:#263238;stroke-linecap:round;stroke-linejoin:round"
         d="m 270.61,282 c 0,0 9,1.33 9.67,2.33 0.67,1 8,9.34 9,10.34 1,1 1.66,10.33 1.66,10.33 0,0 -2.33,1.67 -3,0.67 -0.67,-1 -8.33,-10.67 -8.33,-10.67 0,0 -9.67,-3.33 -10.33,-5.33 l -0.67,-2 z"
         inkscape:connector-curvature="0" />
      <path
         id="path13861"
         style="fill:#ffffff;stroke:#263238;stroke-linecap:round;stroke-linejoin:round"
         d="m 180.94,210 c 0,0 16.67,76 18,76.33 1.33,0.33 69.67,1.34 69.67,1.34 l 2,-5.67 -56.67,-14.33 -3.66,-50.67"
         inkscape:connector-curvature="0" />
      <path
         id="path13863"
         style="fill:#263238;stroke:#263238;stroke-linecap:round;stroke-linejoin:round"
         d="m 297.28,310.53 c 0,0 36,8.51 38.66,10.14 2.66,1.63 1.34,7.53 -0.33,12.44 -1.67,4.91 -52.67,92.27 -52.67,92.27 l -7.66,-2 23.33,-82.78 h -29.33 z"
         inkscape:connector-curvature="0" />
      <path
         id="path13865"
         style="fill:#ffffff;stroke:#263238;stroke-linecap:round;stroke-linejoin:round"
         d="m 282.94,425.38 6,13.74 c 0,0 8.34,6.21 8,7.2 -0.34,0.99 -4.33,1 -4.33,1 L 282.94,445 c 0,0 -9,-8.51 -11.33,-10.15 -2.33,-1.64 -5,-2 -3,-4.58 a 74.63,74.63 0 0 1 6.67,-6.87 z"
         inkscape:connector-curvature="0" />
      <path
         id="path13867"
         style="fill:#263238;stroke:#263238;stroke-linecap:round;stroke-linejoin:round"
         d="m 196.61,303.33 c 0,0 -1.67,18 -1.67,22.58 0,4.58 3.67,11.78 10.34,14.4 6.67,2.62 84.33,0 84.33,0 l 30.67,94.23 9,-3.28 c 0,0 -11.34,-102.73 -11.34,-105 0,-2.27 -1,-10.47 -4.33,-12.11 -3.33,-1.64 -56.33,-9.49 -56.33,-9.49 z"
         inkscape:connector-curvature="0" />
      <path
         id="path13869"
         style="fill:#ffffff;stroke:#263238;stroke-linecap:round;stroke-linejoin:round"
         d="m 329.28,431.26 c 0,0 17.33,2.29 19.33,2 2,-0.29 8.33,-1.64 6.33,1.63 -2,3.27 -15,6.87 -20.33,9.16 -5.33,2.29 -10.67,5.89 -12.33,3.28 -1.66,-2.61 -2,-12.76 -2,-12.76 z"
         inkscape:connector-curvature="0" />
      <path
         id="path13871"
         style="fill:#ffffff;stroke:#263238;stroke-linecap:round;stroke-linejoin:round"
         d="m 235.61,267.33 h -6.33 l -6.67,7.67 c 0,0 -2,4.67 0,4.67 2,0 6.67,1 9.67,0 3,-1 11.33,-4.34 11.33,-4.34 a 10.41,10.41 0 0 0 -8,-8 z"
         inkscape:connector-curvature="0" />
      <polygon
         id="polygon13873"
         style="fill:#ffffff;stroke:#263238;stroke-linecap:round;stroke-linejoin:round"
         points="249.61,276.33 243.61,275.33 238.94,268.67 248.28,272.33 " />
      <path
         id="path13875"
         style="fill:none;stroke:#263238;stroke-linecap:round;stroke-linejoin:round"
         d="m 222.24,277 c 0,0 8.81,-7.71 11.09,-8.67"
         inkscape:connector-curvature="0" />
      <path
         id="path13877"
         style="fill:none;stroke:#263238;stroke-linecap:round;stroke-linejoin:round"
         d="m 223.85,279.18 c 0,0 11.7,-9.87 14.12,-9.87"
         inkscape:connector-curvature="0" />
      <path
         id="path13879"
         style="fill:none;stroke:#263238;stroke-linecap:round;stroke-linejoin:round"
         d="m 228.29,280.19 c 0,0 8.47,-7.86 12.3,-8.26"
         inkscape:connector-curvature="0" />
    </g>
    <g
       id="freepik--Table--inject-28"
       transform="matrix(0.37895505,0,0,0.1829043,-13.276854,208.37179)">
      <rect
         x="164.72"
         y="288.57999"
         width="507.54999"
         height="23.370001"
         style="fill:#ffffff;stroke:#263238;stroke-linecap:round;stroke-linejoin:round"
         id="rect12977" />
      <polygon
         points="174.07,288.58 169.14,444.19 162.3,444.19 157.37,288.58 "
         style="fill:#ffffff;stroke:#263238;stroke-linecap:round;stroke-linejoin:round"
         id="polygon12979" />
      <polygon
         points="678.28,288.58 673.35,444.19 666.51,444.19 661.58,288.58 "
         style="fill:#ffffff;stroke:#263238;stroke-linecap:round;stroke-linejoin:round"
         id="polygon12981" />
      <polygon
         points="678.28,290.68 677.92,296.18 157.63,296.18 157.63,290.68 "
         style="fill:#263238;stroke:#263238;stroke-miterlimit:10"
         id="polygon12983" />
      <rect
         x="149.78"
         y="286"
         width="533.5"
         height="5.5"
         style="fill:#ffffff;stroke:#263238;stroke-linecap:round;stroke-linejoin:round"
         id="rect12985" />
    </g>
    <g
       id="g4252"
       transform="matrix(0.2499741,0,0,0.2499741,67.857326,193.3323)">
      <path
         id="path4186"
         style="fill:#ffffff;stroke:#263238;stroke-linecap:round;stroke-linejoin:round"
         d="m 200.71,188 c 0,0 2.51,7.77 2.51,9.28 a 27.44,27.44 0 0 1 -0.25,3.26 l 2.21,3.43 a 1,1 0 0 1 -0.31,1.34 l -3.41,2 c 0,0 -0.5,8 -1,9 -0.5,1 -9,0.76 -9,0.76 l -2.76,5.26 -14.3,-5.51 3.76,-10.29 -0.78,-15.53 c 0,0 8.78,-7.76 23.33,-3 z"
         inkscape:connector-curvature="0" />
      <path
         id="path4188"
         style="fill:#263238;stroke:#263238;stroke-linecap:round;stroke-linejoin:round"
         d="m 190.92,206.9 c 0,0 -2.49,2.34 -4.36,2.5 -1.87,0.16 -7.95,-1.25 -8.42,-1.87 -0.47,-0.62 -4.67,-9.35 -4.52,-13.56 0.15,-4.21 0.32,-10.44 4.83,-12.46 4.51,-2.02 11.69,-1.41 15.43,-3.74 3.74,-2.33 9.66,-4.21 12.78,-0.16 3.12,4.05 0.78,9.66 -1.71,12 -2.49,2.34 -5.61,3 -5.3,4 0.31,1 2.18,2.18 1.09,3.74 -1.09,1.56 -5,3 -5,3.58 0,0.58 0.94,2.81 -0.15,3.12 -1.09,0.31 -2.19,-2.18 -3.28,-2.18 -1.09,0 -3.41,3.01 -1.39,5.03 z"
         inkscape:connector-curvature="0" />
      <path
         id="path4190"
         style="fill:none;stroke:#ffffff;stroke-width:0.5px;stroke-linecap:round;stroke-linejoin:round"
         d="m 184.41,199.75 a 7.91,7.91 0 0 0 -1.14,1.66"
         inkscape:connector-curvature="0" />
      <path
         id="path4192"
         style="fill:none;stroke:#ffffff;stroke-width:0.5px;stroke-linecap:round;stroke-linejoin:round"
         d="m 204.89,183.6 a 10.32,10.32 0 0 1 -5.7,8.08 c -4,2.07 -9.33,3.76 -12.87,6.36"
         inkscape:connector-curvature="0" />
      <path
         id="path4194"
         style="fill:none;stroke:#ffffff;stroke-width:0.5px;stroke-linecap:round;stroke-linejoin:round"
         d="m 199.65,193.66 c 0,0 -3.55,3 -7.35,6.09 a 32.38,32.38 0 0 1 -8.55,4.75"
         inkscape:connector-curvature="0" />
      <path
         id="path4196"
         style="fill:#ffffff;stroke:#263238;stroke-linecap:round;stroke-linejoin:round"
         d="m 190.67,207.32 2,0.5 a 6.91,6.91 0 0 0 1.51,5.27"
         inkscape:connector-curvature="0" />
      <line
         id="line4198"
         style="fill:none;stroke:#263238;stroke-linecap:round;stroke-linejoin:round"
         y2="198.45"
         x2="207.11"
         y1="201.95"
         x1="192.99001" />
      <path
         id="path4200"
         style="fill:none;stroke:#263238;stroke-linecap:round;stroke-linejoin:round"
         d="m 203.48,198.17 3.22,0.14 c 0,0 1.11,3.64 -2.24,4.06"
         inkscape:connector-curvature="0" />
      <path
         id="path4202"
         style="fill:#263238;stroke:#263238;stroke-linecap:round;stroke-linejoin:round"
         d="m 189.24,371.06 c 0,0 13,8.21 15.29,8.21 2.29,0 3.43,2.06 2.29,2.29 -1.14,0.23 -8.22,0.45 -13,0.68 -4.78,0.23 -8,-0.23 -10.73,-0.23 -2.73,0 -5.94,0.23 -7.31,-0.45 -1.37,-0.68 0.92,-8.45 0.92,-9.82 0,-1.37 10.94,-1.6 12.54,-0.68 z"
         inkscape:connector-curvature="0" />
      <path
         id="path4204"
         style="fill:#ffffff;stroke:#263238;stroke-linecap:round;stroke-linejoin:round"
         d="m 206,379.61 c -5.05,1.66 -13.24,0.57 -18.16,0.12 -3.89,-0.35 -10,-0.43 -12.49,-0.45 -0.1,1.17 0,2.06 0.39,2.28 1.37,0.68 4.57,0.45 7.31,0.45 2.74,0 5.93,0.46 10.73,0.23 4.8,-0.23 11.87,-0.46 13,-0.68 0.89,-0.18 0.47,-1.36 -0.78,-1.95 z"
         inkscape:connector-curvature="0" />
      <path
         id="path4206"
         style="fill:#92e3a9;stroke:#263238;stroke-linecap:round;stroke-linejoin:round"
         d="m 199.51,314.66 -10.26,51.45 2.14,5.34 a 10.75,10.75 0 0 1 -6.49,4.38 49.17,49.17 0 0 1 -8.9,0.92 c 0,0 -1.14,-5.71 -0.45,-6.4 0.69,-0.69 0.91,-3.42 0.91,-3.42 l 5.93,-51.82 z"
         inkscape:connector-curvature="0" />
      <path
         id="path4208"
         style="fill:#263238;stroke:#263238;stroke-linecap:round;stroke-linejoin:round"
         d="m 230.78,369.32 c 0,0 8,6.62 11.65,7.76 3.65,1.14 7.53,2.28 7.53,3.42 0,1.14 -8.67,2.28 -15.29,1.6 -6.62,-0.68 -16.67,-3.65 -18.95,-3.65 -2.28,0 -1.83,-5.94 -1.83,-6.85 0,-0.91 11.19,-8.22 16.89,-2.28 z"
         inkscape:connector-curvature="0" />
      <path
         id="path4210"
         style="fill:#ffffff;stroke:#263238;stroke-linecap:round;stroke-linejoin:round"
         d="m 250,380.5 c 0,-0.41 -0.51,-0.82 -1.32,-1.23 A 70.46,70.46 0 0 1 229,379.13 c -6.57,-0.94 -12.07,-2.2 -14.88,-2.9 0.24,1.23 0.71,2.22 1.64,2.22 2.28,0 12.33,3 18.95,3.65 6.62,0.65 15.29,-0.46 15.29,-1.6 z"
         inkscape:connector-curvature="0" />
      <path
         id="path4212"
         style="fill:#92e3a9;stroke:#263238;stroke-linecap:round;stroke-linejoin:round"
         d="m 191.07,291.6 a 104.15,104.15 0 0 1 20.54,0.46 c 11.64,1.37 37.65,3 38.1,5.94 0.45,2.94 -20.18,64.73 -20.18,66.32 0,1.59 1.82,3.2 2.28,4.11 a 5.29,5.29 0 0 1 0.46,2.06 c 0,0 -5.59,6 -9.93,7.63 -4.34,1.63 -8,0.1 -8.9,0.1 -0.9,0 -0.91,-6.16 -0.22,-9.13 0.69,-2.97 1.82,-10.5 2.05,-11.18 0.23,-0.68 12.73,-44.62 12.73,-44.62 0,0 -34,5.48 -54.31,3.19 -20.31,-2.29 -22.37,-5.47 -23.51,-10.27 -1.14,-4.8 1.14,-14.38 1.14,-14.38 z"
         inkscape:connector-curvature="0" />
      <path
         id="path4214"
         style="fill:none;stroke:#263238;stroke-linecap:round;stroke-linejoin:round"
         d="m 188.5,306.39 a 14.93,14.93 0 0 1 -1.54,1.88"
         inkscape:connector-curvature="0" />
      <path
         id="path4216"
         style="fill:none;stroke:#263238;stroke-linecap:round;stroke-linejoin:round"
         d="m 194.72,294.11 a 86.38,86.38 0 0 1 -4.53,9.59"
         inkscape:connector-curvature="0" />
      <path
         id="path4218"
         style="fill:none;stroke:#263238;stroke-linecap:round;stroke-linejoin:round"
         d="m 192,296.4 a 24.25,24.25 0 0 1 -11.87,10"
         inkscape:connector-curvature="0" />
      <path
         id="path4220"
         style="fill:#ffffff;stroke:#263238;stroke-linecap:round;stroke-linejoin:round"
         d="m 243.82,309 c 0.78,-0.3 1.53,-0.61 2.24,-0.93"
         inkscape:connector-curvature="0" />
      <path
         id="path4222"
         style="fill:#ffffff;stroke:#263238;stroke-linecap:round;stroke-linejoin:round"
         d="M 228,313.29 A 117.48,117.48 0 0 0 241,310"
         inkscape:connector-curvature="0" />
      <path
         id="path4224"
         style="fill:#ffffff;stroke:#263238;stroke-linecap:round;stroke-linejoin:round"
         d="m 254.39,237.48 c 0.48,-1.91 1.28,-1.76 0.64,-2.39 -0.88,-0.88 -1.59,0.16 -4.14,1.59 -2.55,1.43 -5.09,3.18 -5.09,3.18 a 2.56,2.56 0 0 1 0.63,-1.43 6.81,6.81 0 0 0 1,-3.5 c 0,-1 -0.8,-0.8 -1.12,0.16 -0.32,0.96 -3.18,2.7 -3.34,3.5 -0.16,0.8 -0.73,3.94 -0.73,3.94 -0.91,1.37 -0.91,7.76 -0.91,7.76 l -18.53,13.92 -9.36,11 c 0,0 4.11,6.62 6.39,5.71 2.28,-0.91 3.42,-1.83 8.9,-6.4 C 233.37,270.65 245,252.8 245,252.8 a 43.2,43.2 0 0 0 5.73,-4.3 13.89,13.89 0 0 0 3.46,-8.4 10.54,10.54 0 0 1 0.2,-2.62 z"
         inkscape:connector-curvature="0" />
      <path
         id="path4226"
         style="fill:#ffffff;stroke:#263238;stroke-linecap:round;stroke-linejoin:round"
         d="m 168.65,216.36 c 0,0 1.76,-6.6 9.24,-5.28 7.48,1.32 13.2,7.48 14.52,9.68 1.32,2.2 -24.2,-0.88 -24.2,-0.88 z"
         inkscape:connector-curvature="0" />
      <path
         id="path4228"
         style="fill:#ffffff;stroke:#263238;stroke-linecap:round;stroke-linejoin:round"
         d="m 211.77,274 c 0,0 -1.74,1.88 0,4.84 1.19,2.05 3.29,3.62 7.31,2.93 3.76,-0.66 9.41,-10 9.41,-16.57 0,-6.57 -4.84,-7 -6.6,-5.72 -1.76,1.28 -10.12,14.52 -10.12,14.52 z"
         inkscape:connector-curvature="0" />
      <path
         id="path4230"
         style="fill:#ffffff;stroke:#263238;stroke-linecap:round;stroke-linejoin:round"
         d="m 171.89,215.59 c 0,0 -17.8,8.45 -20.31,10 -2.51,1.55 -4.11,21.45 -4.11,24.88 0,3.43 2.51,37 3.19,42.68 0.68,5.68 22.6,9.59 29.91,7.53 7.31,-2.06 14.43,-7.25 14.43,-9.08 0,-1.83 -0.69,-17.34 -0.23,-20.31 0.46,-2.97 4.56,-15.52 4.56,-15.52 l 12.46,19.88 c 0,0 1.31,2.44 5.94,0.52 6.62,-2.74 7.17,-13.33 7.17,-13.33 0,0 -7.3,-12.78 -9.36,-19.17 -2.06,-6.39 -3,-11.19 -3.88,-12.33 -0.88,-1.14 -21.46,-10.73 -25.11,-13.24 a 16.23,16.23 0 0 0 -14.66,-2.51 z"
         inkscape:connector-curvature="0" />
      <line
         id="line4232"
         style="fill:none;stroke:#263238;stroke-linecap:round;stroke-linejoin:round"
         y2="247.09"
         x2="193.35001"
         y1="255.77"
         x1="199.28" />
      <line
         id="line4234"
         style="fill:none;stroke:#263238;stroke-linecap:round;stroke-linejoin:round"
         y2="249.38"
         x2="187.87"
         y1="254.53"
         x1="198.32001" />
      <path
         id="path4236"
         style="fill:#263238;stroke:#263238;stroke-linecap:round;stroke-linejoin:round"
         d="m 167.35,320 9.12,64.82 a 1.09,1.09 0 0 0 1.33,0.91 v 0 a 1.11,1.11 0 0 0 0.84,-1.17 l -6.43,-65.63 z"
         inkscape:connector-curvature="0" />
      <path
         id="path4238"
         style="fill:#263238;stroke:#263238;stroke-linecap:round;stroke-linejoin:round"
         d="m 141.15,320.51 -15.24,63.66 a 1.09,1.09 0 0 0 0.91,1.33 v 0 a 1.08,1.08 0 0 0 1.2,-0.78 l 17.7,-61.78 z"
         inkscape:connector-curvature="0" />
      <path
         id="path4240"
         style="fill:#263238;stroke:#263238;stroke-linecap:round;stroke-linejoin:round"
         d="m 168.83,319.72 -9.7,64.73 a 1.1,1.1 0 0 0 1,1.26 v 0 a 1.09,1.09 0 0 0 1.13,-0.88 l 12.31,-63.08 z"
         inkscape:connector-curvature="0" />
      <path
         id="path4242"
         style="fill:#263238;stroke:#263238;stroke-linecap:round;stroke-linejoin:round"
         d="m 203.17,320 9.12,64.82 a 1.09,1.09 0 0 0 1.33,0.91 v 0 a 1.11,1.11 0 0 0 0.84,-1.17 L 208,318.91 Z"
         inkscape:connector-curvature="0" />
      <path
         id="path4244"
         style="fill:#92e3a9;stroke:#263238;stroke-linecap:round;stroke-linejoin:round"
         d="m 126.72,252.73 11.1,72.17 h 78.94 c 0,0 1.17,-20.8 -2.31,-28.15 -3.48,-7.35 -46.45,8.41 -48,8 -1.15,-0.29 0.55,-37.55 2.66,-52.11 a 7.22,7.22 0 0 0 -7.15,-8.25 h -28.1 a 7.22,7.22 0 0 0 -7.14,8.34 z"
         inkscape:connector-curvature="0" />
      <path
         id="path4246"
         style="fill:#263238;stroke:#263238;stroke-linecap:round;stroke-linejoin:round"
         d="m 214.45,296.75 c -3.48,-7.35 -46.45,8.41 -48,8 -1.15,-0.29 0.55,-37.55 2.66,-52.11 a 7,7 0 1 0 -13.76,0.07 l 11.1,72.17 h 50.31 c 0,0 1.17,-20.78 -2.31,-28.13 z"
         inkscape:connector-curvature="0" />
      <path
         id="path4248"
         style="fill:#ffffff;stroke:#263238;stroke-linecap:round;stroke-linejoin:round"
         d="m 254.39,237.48 c 0,0 -1.27,1.27 -3.18,3.5"
         inkscape:connector-curvature="0" />
      <path
         id="path4250"
         style="fill:#ffffff;stroke:#263238;stroke-linecap:round;stroke-linejoin:round"
         d="m 254.19,240.06 c 0,0 -1.55,3.15 -2.5,4.58"
         inkscape:connector-curvature="0" />
    </g>
    <path
       inkscape:connector-curvature="0"
       d="m 45.540346,256.635 c 0,0 -0.49178,-0.2049 -0.7725,-0.0348 -0.28072,0.17007 -0.35244,2.14539 0,2.74372 a 1.182319,1.182319 0 0 0 0.84422,0.63316 l 0.0697,-0.95077 c 0,0 -0.31556,0.17622 -0.49178,-0.49178 -0.17622,-0.668 -0.14139,-1.22945 -0.0348,-1.26633 a 0.76020861,0.76020861 0 0 1 0.35039,0.0697 z"
       style="fill:#92e3a9;stroke:#263238;stroke-width:0.20490798;stroke-linecap:round;stroke-linejoin:round"
       id="path13968" />
    <rect
       x="-49.435616"
       y="-260.68808"
       width="3.9711165"
       height="5.0100002"
       transform="scale(-1)"
       style="fill:#92e3a9;stroke:#263238;stroke-width:0.20490798;stroke-linecap:round;stroke-linejoin:round"
       id="rect13970" />
    <path
       inkscape:connector-curvature="0"
       d="m 86.881312,256.635 c 0,0 -0.491779,-0.2049 -0.772503,-0.0348 -0.280724,0.17007 -0.352442,2.14539 0,2.74372 a 1.182319,1.182319 0 0 0 0.844221,0.63316 l 0.06967,-0.95077 c 0,0 -0.315558,0.17622 -0.491779,-0.49178 -0.176221,-0.668 -0.141386,-1.22945 -0.03483,-1.26633 a 0.76020861,0.76020861 0 0 1 0.350392,0.0697 z"
       style="fill:#92e3a9;stroke:#263238;stroke-width:0.20490798;stroke-linecap:round;stroke-linejoin:round"
       id="path13972" />
    <rect
       x="-90.776588"
       y="-260.68808"
       width="3.9711165"
       height="5.0100002"
       transform="scale(-1)"
       style="fill:#92e3a9;stroke:#263238;stroke-width:0.20490798;stroke-linecap:round;stroke-linejoin:round"
       id="rect13974" />
    <path
       inkscape:connector-curvature="0"
       d="m 196.06492,256.42865 c 0,0 0.49383,-0.20491 0.77455,-0.0348 0.28073,0.17007 0.35244,2.14538 0,2.74371 a 1.182319,1.182319 0 0 1 -0.84422,0.63317 l -0.0697,-0.95077 c 0,0 0.31556,0.17622 0.49178,-0.49178 0.17622,-0.668 0.14139,-1.22945 0.0348,-1.26633 a 0.76020861,0.76020861 0 0 0 -0.35039,0.0697 z"
       style="fill:#92e3a9;stroke:#263238;stroke-width:0.20490798;stroke-linecap:round;stroke-linejoin:round"
       id="path13990" />
    <rect
       x="192.17172"
       y="255.46967"
       width="3.9711165"
       height="5.0100002"
       style="fill:#92e3a9;stroke:#263238;stroke-width:0.20490798;stroke-linecap:round;stroke-linejoin:round"
       id="rect13992" />
    <g
       id="freepik--Plant--inject-22"
       transform="matrix(0.26458333,0,0,0.26458333,72.999675,169.92985)">
      <path
         inkscape:connector-curvature="0"
         d="m 728,338.33 -5.72,2.67 10.29,-16.16 c 0.18,-1 0.33,-2.07 0.47,-3.12 l 0.44,-13.53 c 0,0 -6,5.75 -6.77,6 -0.77,0.25 4.22,-18.5 5.45,-23.15 -0.37,-3.4 -0.81,-7 -1.31,-10.72 l -7.53,3.93 5.73,-8.86 -2.08,-18 -3.91,1.68 2.83,-8.74 c -1.23,-6.22 -2.59,-12.36 -4,-18.19 l -3.73,-8.76 -1.87,7.62 -0.29,-18.29 c -4.32,-11.91 -9.21,-19.86 -14.39,-19.86 -6.24,0 -12.07,11.58 -17,27.75 l -0.1,10.4 -1.3,-5.48 c -2.54,9.11 -4.81,19.34 -6.73,29.61 l 1.26,3.89 -1.83,-0.78 c -1.15,6.39 -2.16,12.76 -3,18.83 l 4.59,7.1 -5.18,-2.7 c -0.78,5.92 -1.4,11.49 -1.84,16.45 1.83,7.1 4.12,16.34 3.64,16.19 a 36.53,36.53 0 0 1 -4.4,-3.75 c 0,0.67 0,1.33 0,1.93 a 71.28,71.28 0 0 0 2.39,18.51 l 6.41,10.2 -3.47,-1.6 c 5.73,13.09 15.51,21.72 26.6,21.72 11.09,0 21.11,-8.84 26.82,-22.2 z"
         style="fill:#92e3a9"
         id="path16270" />
      <polygon
         points="698.75,333.86 692.87,329.87 698.57,338.21 695.87,402.48 704.03,402.48 702.65,322.23 719.59,312.89 709.9,316.47 711.85,310.64 707.22,317.47 702.59,319.18 702.26,300.04 719.09,277.69 710.07,286.7 711.6,280.43 707.28,289.49 702.17,294.6 701.65,264.7 699.82,308.31 683.88,291.42 692.64,303.32 684.38,302.4 694.58,305.96 699.63,312.83 "
         style="fill:#263238"
         id="polygon16272" />
      <path
         inkscape:connector-curvature="0"
         d="m 719.25,264.79 a 6.94,6.94 0 0 1 -5.82,7.81 7,7 0 0 1 5.82,-7.81 z"
         style="fill:#ffffff"
         id="path16274" />
      <path
         inkscape:connector-curvature="0"
         d="m 728.88,278.33 a 6.94,6.94 0 0 1 -5.81,7.81 7,7 0 0 1 5.81,-7.81 z"
         style="fill:#ffffff"
         id="path16276" />
      <path
         inkscape:connector-curvature="0"
         d="m 728.88,304.7 a 6.94,6.94 0 0 1 -8.1,5.4 6.93,6.93 0 0 1 8.1,-5.4 z"
         style="fill:#ffffff"
         id="path16278" />
      <path
         inkscape:connector-curvature="0"
         d="m 676,304.7 a 6.94,6.94 0 0 0 8.1,5.4 6.93,6.93 0 0 0 -8.1,-5.4 z"
         style="fill:#ffffff"
         id="path16280" />
      <path
         inkscape:connector-curvature="0"
         d="m 717.75,293.76 a 7,7 0 0 1 -5.82,7.81 8.22,8.22 0 0 1 1.31,-5.1 8.13,8.13 0 0 1 4.51,-2.71 z"
         style="fill:#ffffff"
         id="path16282" />
      <path
         inkscape:connector-curvature="0"
         d="m 715.25,250.06 a 6.94,6.94 0 0 1 -5.81,7.81 7,7 0 0 1 5.81,-7.81 z"
         style="fill:#ffffff"
         id="path16284" />
      <path
         inkscape:connector-curvature="0"
         d="m 709.51,261.3 a 7,7 0 0 1 -5.82,7.81 6.94,6.94 0 0 1 5.82,-7.81 z"
         style="fill:#ffffff"
         id="path16286" />
      <path
         inkscape:connector-curvature="0"
         d="m 723.14,253.12 a 7,7 0 0 1 -5.81,7.81 6.94,6.94 0 0 1 5.81,-7.81 z"
         style="fill:#ffffff"
         id="path16288" />
      <path
         inkscape:connector-curvature="0"
         d="m 678.84,253.12 a 7,7 0 0 0 5.82,7.81 6.94,6.94 0 0 0 -5.82,-7.81 z"
         style="fill:#ffffff"
         id="path16290" />
      <path
         inkscape:connector-curvature="0"
         d="m 716.5,236.33 a 7,7 0 0 1 -5.81,7.81 7,7 0 0 1 5.81,-7.81 z"
         style="fill:#ffffff"
         id="path16292" />
      <path
         inkscape:connector-curvature="0"
         d="m 713.68,221.74 a 6.95,6.95 0 0 1 -3.67,9 6.95,6.95 0 0 1 3.67,-9 z"
         style="fill:#ffffff"
         id="path16294" />
      <path
         inkscape:connector-curvature="0"
         d="m 693.46,217.93 a 7,7 0 0 1 3.32,9.15 6.92,6.92 0 0 1 -3.32,-9.15 z"
         style="fill:#ffffff"
         id="path16296" />
      <path
         inkscape:connector-curvature="0"
         d="m 702.89,235.37 a 7,7 0 0 1 -0.56,9.73 7,7 0 0 1 0.56,-9.73 z"
         style="fill:#ffffff"
         id="path16298" />
      <path
         inkscape:connector-curvature="0"
         d="m 702.39,209.41 a 6.94,6.94 0 0 1 -0.56,9.72 6.94,6.94 0 0 1 0.56,-9.72 z"
         style="fill:#ffffff"
         id="path16300" />
      <path
         inkscape:connector-curvature="0"
         d="m 681.22,264.79 a 6.94,6.94 0 0 0 5.78,7.81 7,7 0 0 0 -5.82,-7.81 z"
         style="fill:#ffffff"
         id="path16302" />
      <path
         inkscape:connector-curvature="0"
         d="m 675.73,280.77 a 6.94,6.94 0 0 0 5.82,7.81 7,7 0 0 0 -5.82,-7.81 z"
         style="fill:#ffffff"
         id="path16304" />
      <path
         inkscape:connector-curvature="0"
         d="m 690.31,286.57 a 8.22,8.22 0 0 0 1.31,5.1 8.13,8.13 0 0 0 4.51,2.71 7,7 0 0 0 -5.82,-7.81 z"
         style="fill:#ffffff"
         id="path16306" />
      <path
         inkscape:connector-curvature="0"
         d="m 694.3,264.43 a 6.94,6.94 0 0 0 3.33,9.15 6.94,6.94 0 0 0 -3.33,-9.15 z"
         style="fill:#ffffff"
         id="path16308" />
      <path
         inkscape:connector-curvature="0"
         d="m 684,323.35 a 6.94,6.94 0 0 0 7.31,-6.44 7,7 0 0 0 -7.31,6.44 z"
         style="fill:#ffffff"
         id="path16310" />
      <path
         inkscape:connector-curvature="0"
         d="m 712.3,320.12 a 6.94,6.94 0 0 0 8.28,5.13 7,7 0 0 0 -8.28,-5.13 z"
         style="fill:#ffffff"
         id="path16312" />
      <path
         inkscape:connector-curvature="0"
         d="m 687.27,250.06 a 6.94,6.94 0 0 0 5.81,7.81 7,7 0 0 0 -5.81,-7.81 z"
         style="fill:#ffffff"
         id="path16314" />
      <path
         inkscape:connector-curvature="0"
         d="m 687.22,237.08 a 7,7 0 0 0 5.81,7.81 6.94,6.94 0 0 0 -5.81,-7.81 z"
         style="fill:#ffffff"
         id="path16316" />
      <rect
         x="683.56"
         y="383.76001"
         width="33.720001"
         height="66.900002"
         style="fill:#263238"
         id="rect16318" />
    </g>
    <g
       id="freepik--Lamps--inject-22"
       transform="matrix(0.26458333,0,0,0.26458333,114.23548,91.383331)">
      <polygon
         points="162.9,79.61 177.31,58.23 206.12,58.23 220.53,79.61 "
         style="fill:#263238"
         id="polygon16795" />
      <path
         inkscape:connector-curvature="0"
         d="M 220.53,80.11 H 162.9 a 0.49,0.49 0 0 1 -0.44,-0.26 0.51,0.51 0 0 1 0,-0.52 L 176.89,58 a 0.5,0.5 0 0 1 0.42,-0.22 h 28.81 a 0.51,0.51 0 0 1 0.42,0.22 l 14.4,21.38 a 0.49,0.49 0 0 1 0,0.52 0.51,0.51 0 0 1 -0.41,0.21 z m -56.69,-1 h 55.75 L 205.85,58.73 h -28.28 z"
         style="fill:#263238"
         id="path16797" />
      <path
         inkscape:connector-curvature="0"
         d="m 191.33,58.37 a 0.5,0.5 0 0 1 -0.5,-0.5 V 35.53 a 0.5,0.5 0 0 1 0.5,-0.5 0.5,0.5 0 0 1 0.5,0.5 v 22.34 a 0.5,0.5 0 0 1 -0.5,0.5 z"
         style="fill:#263238"
         id="path16799" />
      <polygon
         points="522.61,79.61 537.01,58.23 565.83,58.23 580.24,79.61 "
         style="fill:#263238"
         id="polygon16801" />
      <path
         inkscape:connector-curvature="0"
         d="m 580.24,80.11 h -57.63 a 0.49,0.49 0 0 1 -0.44,-0.26 0.51,0.51 0 0 1 0,-0.52 L 536.6,58 a 0.5,0.5 0 0 1 0.42,-0.22 h 28.81 a 0.51,0.51 0 0 1 0.42,0.22 l 14.4,21.38 a 0.49,0.49 0 0 1 0,0.52 0.51,0.51 0 0 1 -0.41,0.21 z m -56.69,-1 H 579.3 L 565.56,58.73 h -28.28 z"
         style="fill:#263238"
         id="path16803" />
      <path
         inkscape:connector-curvature="0"
         d="m 551,58.37 a 0.5,0.5 0 0 1 -0.5,-0.5 V 35.53 a 0.5,0.5 0 0 1 0.5,-0.5 0.5,0.5 0 0 1 0.5,0.5 v 22.34 a 0.5,0.5 0 0 1 -0.5,0.5 z"
         style="fill:#263238"
         id="path16805" />
    </g>
    <g
       transform="matrix(0.26458333,0,0,0.26458333,-36.746362,195.33018)"
       id="g22354">
      <polygon
         id="polygon22342"
         style="fill:#263238"
         points="162.9,79.61 177.31,58.23 206.12,58.23 220.53,79.61 " />
      <path
         id="path22344"
         style="fill:#263238"
         d="M 220.53,80.11 H 162.9 a 0.49,0.49 0 0 1 -0.44,-0.26 0.51,0.51 0 0 1 0,-0.52 L 176.89,58 a 0.5,0.5 0 0 1 0.42,-0.22 h 28.81 a 0.51,0.51 0 0 1 0.42,0.22 l 14.4,21.38 a 0.49,0.49 0 0 1 0,0.52 0.51,0.51 0 0 1 -0.41,0.21 z m -56.69,-1 h 55.75 L 205.85,58.73 h -28.28 z"
         inkscape:connector-curvature="0" />
      <path
         id="path22346"
         style="fill:#263238"
         d="m 191.33,58.37 a 0.5,0.5 0 0 1 -0.5,-0.5 V 35.53 a 0.5,0.5 0 0 1 0.5,-0.5 0.5,0.5 0 0 1 0.5,0.5 v 22.34 a 0.5,0.5 0 0 1 -0.5,0.5 z"
         inkscape:connector-curvature="0" />
      <polygon
         id="polygon22348"
         style="fill:#263238"
         points="522.61,79.61 537.01,58.23 565.83,58.23 580.24,79.61 " />
      <path
         id="path22350"
         style="fill:#263238"
         d="m 580.24,80.11 h -57.63 a 0.49,0.49 0 0 1 -0.44,-0.26 0.51,0.51 0 0 1 0,-0.52 L 536.6,58 a 0.5,0.5 0 0 1 0.42,-0.22 h 28.81 a 0.51,0.51 0 0 1 0.42,0.22 l 14.4,21.38 a 0.49,0.49 0 0 1 0,0.52 0.51,0.51 0 0 1 -0.41,0.21 z m -56.69,-1 H 579.3 L 565.56,58.73 h -28.28 z"
         inkscape:connector-curvature="0" />
      <path
         id="path22352"
         style="fill:#263238"
         d="m 551,58.37 a 0.5,0.5 0 0 1 -0.5,-0.5 V 35.53 a 0.5,0.5 0 0 1 0.5,-0.5 0.5,0.5 0 0 1 0.5,0.5 v 22.34 a 0.5,0.5 0 0 1 -0.5,0.5 z"
         inkscape:connector-curvature="0" />
    </g>
    <g
       id="g22368"
       transform="matrix(0.26458333,0,0,0.26458333,132.58725,195.33018)">
      <polygon
         points="206.12,58.23 220.53,79.61 162.9,79.61 177.31,58.23 "
         style="fill:#263238"
         id="polygon22356" />
      <path
         inkscape:connector-curvature="0"
         d="M 220.53,80.11 H 162.9 a 0.49,0.49 0 0 1 -0.44,-0.26 0.51,0.51 0 0 1 0,-0.52 L 176.89,58 a 0.5,0.5 0 0 1 0.42,-0.22 h 28.81 a 0.51,0.51 0 0 1 0.42,0.22 l 14.4,21.38 a 0.49,0.49 0 0 1 0,0.52 0.51,0.51 0 0 1 -0.41,0.21 z m -56.69,-1 h 55.75 L 205.85,58.73 h -28.28 z"
         style="fill:#263238"
         id="path22358" />
      <path
         inkscape:connector-curvature="0"
         d="m 191.33,58.37 a 0.5,0.5 0 0 1 -0.5,-0.5 V 35.53 a 0.5,0.5 0 0 1 0.5,-0.5 0.5,0.5 0 0 1 0.5,0.5 v 22.34 a 0.5,0.5 0 0 1 -0.5,0.5 z"
         style="fill:#263238"
         id="path22360" />
      <polygon
         points="565.83,58.23 580.24,79.61 522.61,79.61 537.01,58.23 "
         style="fill:#263238"
         id="polygon22362" />
      <path
         inkscape:connector-curvature="0"
         d="m 580.24,80.11 h -57.63 a 0.49,0.49 0 0 1 -0.44,-0.26 0.51,0.51 0 0 1 0,-0.52 L 536.6,58 a 0.5,0.5 0 0 1 0.42,-0.22 h 28.81 a 0.51,0.51 0 0 1 0.42,0.22 l 14.4,21.38 a 0.49,0.49 0 0 1 0,0.52 0.51,0.51 0 0 1 -0.41,0.21 z m -56.69,-1 H 579.3 L 565.56,58.73 h -28.28 z"
         style="fill:#263238"
         id="path22364" />
      <path
         inkscape:connector-curvature="0"
         d="m 551,58.37 a 0.5,0.5 0 0 1 -0.5,-0.5 V 35.53 a 0.5,0.5 0 0 1 0.5,-0.5 0.5,0.5 0 0 1 0.5,0.5 v 22.34 a 0.5,0.5 0 0 1 -0.5,0.5 z"
         style="fill:#263238"
         id="path22366" />
    </g>
  </g>
</svg>
